<svg width="161" height="109" viewBox="0 0 161 109" fill="none" xmlns="http://www.w3.org/2000/svg">
<g id="Group 1171274402">
<g id="Group 1171274379">
<path id="Vector" d="M85.7335 56.766C85.3083 57.4595 85.4202 58.3991 85.644 59.3387C85.5545 59.294 85.465 59.2269 85.3755 59.1598C84.4804 58.511 84.2566 57.7727 84.4133 57.0345C84.5475 56.7213 84.7042 56.4305 84.9503 56.162C85.3307 55.7369 86.0244 56.2962 85.7335 56.766Z" fill="black"/>
<path id="Vector_2" d="M40.1472 45.4005C38.8045 44.2148 36.7456 43.7898 35.0001 43.6332C33.0755 43.4542 31.0837 43.745 29.2934 44.4385C27.615 45.0873 25.6904 46.1164 25.2205 47.9956C24.9072 49.1814 25.31 50.1433 26.0485 50.8369C26.7422 51.5975 27.8612 52.0897 28.8682 52.3358C30.9271 52.8727 33.0531 52.9174 35.1567 52.5371C37.0365 52.2015 39.0954 51.5304 40.3263 50.0091C41.4676 48.5997 41.5795 46.6757 40.1472 45.4005Z" fill="black"/>
<path id="Vector_3" d="M36.5447 56.8104C34.7768 57.0788 33.0089 56.9893 31.2633 56.6761C29.8534 56.4301 27.996 56.4077 26.8994 55.3562C25.9147 54.3718 25.8028 52.7835 25.8028 51.4859C25.7804 49.7633 26.1161 47.7946 27.5931 46.7207C28.1526 46.318 27.6379 45.4008 27.0337 45.7811C25.3776 46.8549 24.7063 48.6447 24.5272 50.5463C24.3482 52.336 24.3706 54.4837 25.4671 56.005C26.6085 57.5934 28.6002 57.929 30.4353 58.1527C32.5613 58.3988 34.7992 58.2645 36.7909 57.4144C37.1714 57.2578 36.8804 56.7433 36.5447 56.8104Z" fill="black"/>
<path id="Vector_4" d="M41.8263 51.2406C41.7145 49.876 41.5802 48.2876 41.0207 47.0124C40.5731 45.9833 39.5438 45.1779 38.3801 45.6925C37.9325 45.8938 38.022 46.5426 38.3801 46.7663C39.0738 47.1914 39.3423 47.6835 39.5213 48.4889C39.7451 49.4956 39.9466 50.5247 40.0585 51.5538C40.2599 53.3659 40.4836 55.6926 38.2905 56.319C37.8877 56.4308 38.0668 57.0125 38.4696 56.9454C41.2893 56.4756 42.0501 53.7463 41.8263 51.2406Z" fill="black"/>
<path id="Vector_5" d="M59.7528 50.0763C58.41 48.8906 56.3512 48.4655 54.6056 48.3089C52.681 48.13 50.6893 48.4208 48.8989 49.1143C47.2205 49.7631 45.2959 50.7922 44.8259 52.6714C44.5126 53.8571 44.9155 54.8191 45.654 55.5126C46.3477 56.2733 47.4667 56.7654 48.4737 57.0115C50.5326 57.5485 52.6586 57.5932 54.7622 57.2129C56.6421 56.8773 58.7009 56.2061 59.9318 54.6849C61.0731 53.2755 61.2074 51.3515 59.7528 50.0763Z" fill="black"/>
<path id="Vector_6" d="M56.1493 61.4857C54.3813 61.7541 52.6133 61.6646 50.8678 61.3514C49.4579 61.1053 47.6004 61.083 46.5039 60.0315C45.5192 59.0471 45.4073 57.4587 45.4073 56.1612C45.3849 54.4386 45.7206 52.4698 47.1976 51.396C47.7571 50.9933 47.2424 50.0761 46.6382 50.4564C44.9821 51.5302 44.3108 53.32 44.1317 55.2216C43.9527 57.0113 43.9751 59.159 45.0716 60.6803C46.213 62.2687 48.2047 62.6043 50.0398 62.828C52.1658 63.0741 54.4037 62.9398 56.3955 62.0897C56.7759 61.9331 56.4849 61.4185 56.1493 61.4857Z" fill="black"/>
<path id="Vector_7" d="M61.4524 55.9159C61.3405 54.5513 61.2062 52.9629 60.6468 51.6877C60.1992 50.6586 59.1698 49.8532 58.0061 50.3677C57.5585 50.5691 57.648 51.2179 58.0061 51.4416C58.6998 51.8666 58.9683 52.3588 59.1473 53.1642C59.3711 54.1709 59.5726 55.2 59.6845 56.2291C59.8859 58.0412 60.1096 60.3679 57.9165 60.9943C57.5137 61.1062 57.6927 61.6878 58.0956 61.6207C60.8929 61.1509 61.6538 58.4216 61.4524 55.9159Z" fill="black"/>
<path id="Vector_8" d="M56.7751 30.6574C55.4324 29.4717 53.3735 29.0466 51.628 28.89C49.7034 28.711 47.7117 29.0018 45.9213 29.6954C44.2429 30.3441 42.3183 31.3732 41.8484 33.2525C41.5351 34.4382 41.9379 35.4001 42.6764 36.0937C43.3701 36.8543 44.4891 37.3465 45.4961 37.5926C47.555 38.1295 49.681 38.1742 51.7846 37.7939C53.6644 37.4583 55.7233 36.7872 56.9542 35.2659C58.0955 33.8565 58.2074 31.9325 56.7751 30.6574Z" fill="black"/>
<path id="Vector_9" d="M53.1717 42.0669C51.4038 42.3354 49.6359 42.2459 47.8903 41.9327C46.4804 41.6866 44.623 41.6643 43.5264 40.6128C42.5417 39.6284 42.4298 38.04 42.4298 36.7425C42.4074 35.0198 42.7431 33.0511 44.2201 31.9773C44.7796 31.5746 44.2649 30.6574 43.6606 31.0377C42.0046 32.1115 41.3332 33.9013 41.1542 35.8029C40.9751 37.5926 40.9975 39.7403 42.0941 41.2616C43.2354 42.8499 45.2271 43.1855 47.0622 43.4092C49.1882 43.6553 51.4262 43.5211 53.4179 42.671C53.7984 42.5144 53.5074 42.0222 53.1717 42.0669Z" fill="black"/>
<path id="Vector_10" d="M58.4758 36.497C58.3639 35.1323 58.2296 33.5439 57.6702 32.2687C57.2226 31.2396 56.1932 30.4343 55.0295 30.9488C54.5819 31.1501 54.6714 31.7989 55.0295 32.0226C55.7232 32.4477 55.9918 32.9399 56.1708 33.7453C56.3946 34.752 56.596 35.7811 56.7079 36.8102C56.9093 38.6223 57.1331 40.949 54.94 41.5754C54.5371 41.6872 54.7161 42.2689 55.119 42.2018C57.9163 41.732 58.6772 39.0026 58.4758 36.497Z" fill="black"/>
<path id="Vector_11" d="M76.3797 35.3331C75.037 34.1474 72.9781 33.7224 71.2325 33.5658C69.3079 33.3868 67.3162 33.6776 65.5259 34.3711C63.8474 35.0199 61.9228 36.049 61.4529 37.9283C61.1396 39.114 61.5424 40.0759 62.2809 40.7695C62.9747 41.5301 64.0936 42.0223 65.1007 42.2684C67.1596 42.8053 69.2856 42.85 71.3892 42.4697C73.2691 42.1341 75.3279 41.463 76.5588 39.9417C77.7001 38.5323 77.8344 36.6083 76.3797 35.3331Z" fill="black"/>
<path id="Vector_12" d="M72.7772 46.7427C71.0092 47.0112 69.2413 46.9217 67.4957 46.6085C66.0858 46.3624 64.2284 46.3401 63.1318 45.2886C62.1471 44.3042 62.0352 42.7158 62.0352 41.4183C62.0129 39.6956 62.3485 37.7269 63.8256 36.6531C64.385 36.2504 63.8703 35.3331 63.2661 35.7135C61.61 36.7873 60.9387 38.5771 60.7596 40.4787C60.5806 42.2684 60.603 44.4161 61.6996 45.9374C62.8409 47.5258 64.8326 47.8613 66.6677 48.085C68.7937 48.3311 71.0316 48.1969 73.0233 47.3468C73.4038 47.1902 73.1129 46.698 72.7772 46.7427Z" fill="black"/>
<path id="Vector_13" d="M78.0803 41.1728C77.9684 39.8081 77.8341 38.2197 77.2746 36.9445C76.827 35.9154 75.7977 35.11 74.634 35.6246C74.1864 35.8259 74.2759 36.4747 74.634 36.6984C75.3277 37.1235 75.5962 37.6157 75.7753 38.421C75.999 39.4278 76.2005 40.4569 76.3124 41.486C76.5138 43.2981 76.7375 45.6247 74.5444 46.2511C74.1416 46.363 74.3207 46.9447 74.7235 46.8775C77.5208 46.4077 78.2817 43.6784 78.0803 41.1728Z" fill="black"/>
<path id="Vector_14" d="M70.8523 16.6083C69.5095 15.4226 67.4507 14.9975 65.7051 14.8409C63.7805 14.6619 61.7888 14.9528 59.9985 15.6463C58.3201 16.2951 56.3955 17.3242 55.9255 19.2034C55.6122 20.3891 56.015 21.3511 56.7535 22.0446C57.4473 22.8053 58.5663 23.2974 59.5733 23.5435C61.6322 24.0804 63.7581 24.1252 65.8618 23.7449C67.7416 23.4093 69.8005 22.7381 71.0313 21.2169C72.1726 19.8074 72.2845 17.8835 70.8523 16.6083Z" fill="black"/>
<path id="Vector_15" d="M67.2489 28.0181C65.481 28.2866 63.713 28.1971 61.9674 27.8839C60.5576 27.6378 58.7001 27.6154 57.6035 26.5639C56.6188 25.5796 56.507 23.9912 56.507 22.6936C56.4846 20.971 56.8203 19.0023 58.2973 17.9285C58.8568 17.5258 58.342 16.6085 57.7378 16.9889C56.0818 18.0627 55.4103 19.8524 55.2313 21.754C55.0523 23.5438 55.0747 25.6915 56.1713 27.2127C57.3126 28.8011 59.3043 29.1367 61.1394 29.3604C63.2654 29.6065 65.5033 29.4723 67.495 28.6221C67.8755 28.4655 67.5846 27.951 67.2489 28.0181Z" fill="black"/>
<path id="Vector_16" d="M72.5529 22.4479C72.441 21.0832 72.3067 19.4948 71.7473 18.2197C71.2997 17.1906 70.2703 16.3852 69.1066 16.8997C68.659 17.1011 68.7485 17.7499 69.1066 17.9736C69.8003 18.3986 70.0689 18.8908 70.2479 19.6962C70.4717 20.7029 70.6731 21.732 70.785 22.7611C70.9864 24.5732 71.2102 26.8999 69.0171 27.5263C68.6143 27.6382 68.7933 28.2198 69.1961 28.1527C71.9935 27.6829 72.7543 24.9536 72.5529 22.4479Z" fill="black"/>
<path id="Vector_17" d="M90.4559 21.2841C89.1131 20.0984 87.0542 19.6733 85.3087 19.5167C83.3841 19.3377 81.3924 19.6286 79.602 20.3221C77.9236 20.9709 75.999 22 75.5291 23.8792C75.2157 25.0649 75.6186 26.0269 76.3571 26.7204C77.0508 27.481 78.1697 27.9732 79.1768 28.2193C81.2357 28.7562 83.3617 28.801 85.4653 28.4206C87.3452 28.0851 89.4041 27.4139 90.6349 25.8926C91.7762 24.4832 91.9105 22.5593 90.4559 21.2841Z" fill="black"/>
<path id="Vector_18" d="M86.8533 32.6939C85.0854 32.9623 83.3175 32.8729 81.5719 32.5597C80.162 32.3136 78.3046 32.2912 77.208 31.2397C76.2233 30.2554 76.1114 28.667 76.1114 27.3694C76.089 25.6468 76.4247 23.6781 77.9017 22.6043C78.4612 22.2016 77.9465 21.2843 77.3423 21.6646C75.6862 22.7385 75.0149 24.5282 74.8358 26.4298C74.6568 28.2195 74.6792 30.3672 75.7757 31.8885C76.9171 33.4769 78.9088 33.8125 80.7438 34.0362C82.8699 34.2823 85.1078 34.1481 87.0995 33.2979C87.48 33.1413 87.189 32.6268 86.8533 32.6939Z" fill="black"/>
<path id="Vector_19" d="M92.1574 27.1237C92.0455 25.759 91.9113 24.1706 91.3518 22.8955C90.9042 21.8664 89.8748 21.061 88.7111 21.5755C88.2635 21.7769 88.353 22.4256 88.7111 22.6494C89.4048 23.0744 89.6734 23.5666 89.8524 24.372C90.0762 25.3787 90.2776 26.4078 90.3895 27.4369C90.5909 29.249 90.8147 31.5757 88.6216 32.2021C88.2188 32.314 88.3978 32.8956 88.8006 32.8285C91.6203 32.3587 92.3588 29.6293 92.1574 27.1237Z" fill="black"/>
<path id="Vector_20" d="M103.347 21.0605C103.347 20.9933 103.347 20.9262 103.347 20.8367C103.302 20.0985 102.228 19.8748 102.004 20.6354C101.87 20.7025 101.735 20.8144 101.623 20.9486C90.434 34.6848 78.4836 47.7499 66.1976 60.5018C63.3779 63.4325 60.6253 66.4527 57.8279 69.4058L57.8055 69.4281C57.4027 69.8756 56.9999 70.323 56.5971 70.7928C56.5747 70.8152 56.5747 70.8376 56.5523 70.8599C56.5523 70.8599 56.5523 70.8823 56.5299 70.8823C56.5075 71.2626 56.4628 71.6653 56.418 72.0456C56.418 72.0904 56.3957 72.1575 56.3957 72.2022C56.418 72.2022 56.418 72.2022 56.418 72.2022C56.418 72.2022 56.418 72.2022 56.4404 72.1799C56.2614 78.8019 56.1943 85.4016 56.1719 92.046C56.1719 92.4039 56.3733 92.65 56.6195 92.7619C56.9551 93.0974 57.4922 93.2093 57.9174 92.7842C69.3307 81.0838 80.4754 69.1149 91.4858 57.0342C93.858 54.4391 96.2526 51.844 98.6247 49.2488C99.3856 48.4211 100.146 47.571 100.885 46.7432C100.93 46.6761 100.975 46.6313 101.019 46.5642C101.198 46.2734 101.221 45.9378 101.109 45.6694L101.221 44.5955C101.512 41.9557 101.78 39.3158 102.049 36.6759C102.317 34.1032 102.563 31.5304 102.832 28.9577C103.033 26.8771 103.324 24.7294 103.347 22.6265C103.347 22.6265 103.391 22.0672 103.391 21.7987C103.391 21.5303 103.347 21.0605 103.347 21.0605Z" fill="black"/>
<path id="Vector_21" d="M24.4156 53.8795C21.7078 56.5417 19.0447 59.2039 16.3816 61.8885C15.6655 62.6044 16.762 63.6782 17.4781 62.9847C20.2307 60.3896 22.961 57.7721 25.6689 55.1323C26.4969 54.3269 25.2436 53.0741 24.4156 53.8795Z" fill="black"/>
<path id="Vector_22" d="M41.222 38.9353C39.1855 40.6579 37.2608 42.5148 35.4033 44.4164C34.8662 44.9757 35.6943 45.8034 36.2538 45.2665C38.2008 43.432 40.2149 41.687 42.2962 40.0091C43.0571 39.4051 41.9605 38.3089 41.222 38.9353Z" fill="black"/>
<path id="Vector_23" d="M55.3658 25.3776C54.2245 26.6975 52.7251 27.7713 51.4495 29.0018C50.9571 29.4716 51.6957 30.1651 52.188 29.7401C53.4412 28.6215 54.784 27.3239 56.3057 26.5856C57.3128 26.1158 56.1043 24.5051 55.3658 25.3776Z" fill="black"/>
<path id="Vector_24" d="M130.001 77.6831C127.74 80.0769 125.435 82.426 123.108 84.7526C119.08 88.7795 114.939 92.6946 110.799 96.6096C110.441 96.9452 110.106 97.2808 109.748 97.6164C109.479 97.8848 109.188 98.1309 108.92 98.3994C108.785 98.3546 108.673 98.3099 108.539 98.2651C108.226 98.1533 107.89 98.0414 107.577 97.9072C103.526 96.453 99.4532 95.0212 95.4026 93.5223C93.1871 92.6946 90.994 91.8668 88.8232 90.972C87.7043 90.5245 86.6077 90.0547 85.4888 89.652C82.7585 88.6453 80.0059 87.6833 77.3204 86.5424C77.0295 86.4305 76.761 86.2963 76.47 86.1844C76.4029 85.3343 76.3134 84.4618 76.2462 83.6116C75.9777 80.5915 75.6868 77.5713 75.3958 74.5287C75.1049 71.5533 74.8363 68.5778 74.5902 65.6024C74.4335 63.8127 74.2993 62.0229 74.1874 60.2556C74.165 59.9871 74.1426 59.741 74.1426 59.4726V59.4502C74.2321 59.3607 74.3217 59.2712 74.4112 59.1817C77.2533 56.3405 80.2297 53.6335 83.2956 51.0384C87.5924 47.3918 92.0458 43.9242 96.4545 40.4342C96.7678 40.1881 97.081 39.9197 97.4167 39.6736C98.8266 40.0763 100.259 40.4566 101.691 40.8593C104.242 41.5528 106.816 42.224 109.389 42.8727C114.738 44.2374 120.131 45.5126 125.502 46.8549C126.442 47.101 127.382 47.3247 128.345 47.5708C128.434 47.6827 128.524 47.7722 128.613 47.884C129.038 48.3986 129.396 48.9578 129.665 49.6066C129.687 49.8303 129.687 50.0541 129.71 50.2778C129.732 50.77 129.777 51.2845 129.799 51.7767C129.956 55.2219 129.956 58.6895 129.911 62.1348C129.866 65.6248 129.822 69.1148 129.889 72.5824C129.889 74.2826 129.933 75.9829 130.001 77.6831Z" fill="#FFE033"/>
<path id="Vector_25" d="M109.187 48.7791C107.777 47.4368 105.584 46.9223 103.704 46.6762C101.645 46.4077 99.4741 46.6315 97.5047 47.325C95.6697 47.9738 93.566 49.0029 92.9618 51.0163C92.5813 52.2915 92.9842 53.343 93.745 54.126C94.4612 54.9761 95.6472 55.5354 96.7438 55.871C98.9369 56.5198 101.242 56.654 103.525 56.3408C105.561 56.05 107.821 55.4012 109.209 53.7904C110.485 52.2915 110.686 50.2109 109.187 48.7791Z" fill="black"/>
<path id="Vector_26" d="M104.868 60.971C102.944 61.1947 101.041 61.0158 99.1615 60.6354C97.6621 60.3222 95.6256 60.2327 94.5067 59.0247C93.4772 57.9285 93.4101 56.2058 93.4549 54.7964C93.4996 52.9395 93.9248 50.8142 95.5809 49.718C96.2075 49.2929 95.6928 48.2862 95.0214 48.6889C93.1863 49.7851 92.4031 51.7091 92.1345 53.7449C91.866 55.6689 91.7988 57.9956 92.9401 59.6958C94.1262 61.4632 96.2523 61.9106 98.244 62.2015C100.527 62.537 102.966 62.4923 105.137 61.6422C105.517 61.4856 105.226 60.9263 104.868 60.971Z" fill="black"/>
<path id="Vector_27" d="M110.799 55.1772C110.732 53.7007 110.642 51.9781 110.105 50.591C109.658 49.4501 108.561 48.5552 107.308 49.0474C106.815 49.2487 106.883 49.9646 107.263 50.2107C108.002 50.7029 108.27 51.2398 108.449 52.1123C108.651 53.2085 108.83 54.3271 108.897 55.4457C109.031 57.4144 109.21 59.9424 106.815 60.5241C106.368 60.6359 106.547 61.2623 106.972 61.1952C110.016 60.7925 110.911 57.8842 110.799 55.1772Z" fill="black"/>
<path id="Vector_28" d="M129.664 50.2553C122.57 56.6984 115.566 63.2757 108.897 70.1662C108.875 70.1885 108.83 70.2333 108.807 70.2556C108.74 70.3228 108.673 70.3899 108.606 70.4794C108.114 70.9939 107.442 70.5241 107.42 69.9424C107.42 69.7635 107.465 69.5845 107.621 69.4055C107.688 69.316 107.778 69.2265 107.845 69.1594C114.447 61.7768 121.272 54.5731 128.59 47.8616C129.015 48.3761 129.374 48.9354 129.642 49.5842C129.642 49.8079 129.664 50.0316 129.664 50.2553Z" fill="white"/>
<path id="Vector_29" d="M109.746 97.5942C109.478 97.8627 109.187 98.1088 108.918 98.3772C108.784 98.3325 108.672 98.2877 108.538 98.243C108.225 98.1311 107.889 98.0193 107.576 97.8851C107.486 95.1781 107.419 92.4487 107.374 89.7194C107.262 83.4777 107.24 77.2583 107.352 71.0166C107.352 70.7705 107.352 70.502 107.374 70.2336C107.374 70.0994 107.397 70.0099 107.441 69.898C107.688 69.3387 108.56 69.3611 108.851 69.8756C108.896 69.9428 108.918 70.0322 108.941 70.1217C108.963 70.1665 108.963 70.2336 108.963 70.2783C109.008 76.699 109.142 83.1197 109.411 89.5404C109.456 92.2697 109.612 94.932 109.746 97.5942Z" fill="white"/>
<path id="Vector_30" d="M107.308 71.0387C106.033 70.2557 104.153 70.0319 102.721 69.6292C101.311 69.2265 99.8785 68.8015 98.4686 68.3764C95.716 67.5487 92.9409 66.6985 90.2107 65.826C84.8174 64.1034 79.4688 62.2689 74.1874 60.2331C74.165 59.987 74.1426 59.7186 74.1426 59.4725V59.4501C74.2321 59.3606 74.3216 59.2711 74.4335 59.1816C79.8492 60.9043 85.2649 62.6493 90.703 64.3271C93.5228 65.1996 96.3649 66.0498 99.1847 66.8551C100.595 67.2578 102.027 67.6605 103.437 68.0632C104.824 68.4435 106.458 69.1594 107.89 69.1371C109.524 69.1371 108.808 71.9559 107.308 71.0387Z" fill="white"/>
<path id="Vector_31" d="M17.5004 62.5151C17.4333 61.5531 15.9562 61.5307 16.001 62.5151C16.2024 69.1818 16.3143 75.8934 16.9633 82.5378C17.0528 83.4326 18.3732 83.4774 18.3732 82.5378C18.418 75.871 17.9033 69.1595 17.5004 62.5151Z" fill="black"/>
<path id="Vector_32" d="M54.717 91.5757C48.6746 89.786 42.498 88.5108 36.4109 86.8776C30.3238 85.2445 24.2368 83.5666 18.1273 82.0677C17.344 81.8664 17.0307 83.0297 17.7916 83.2758C23.7892 85.2221 29.8986 86.8553 36.0305 88.287C42.1624 89.7188 48.3166 91.352 54.5379 92.2468C54.9631 92.314 55.1646 91.7099 54.717 91.5757Z" fill="black"/>
<path id="Vector_33" d="M102.943 19.8077C102.071 18.5549 100.482 18.4207 99.0941 18.1299C97.4157 17.7943 95.7373 17.4363 94.0812 17.0784C87.2333 15.6466 80.43 14.103 73.5149 13.0067C72.9331 12.9173 72.6645 13.745 73.2687 13.924C79.0873 15.5795 84.9953 16.8771 90.881 18.2417C93.7903 18.9129 96.6996 19.5617 99.6089 20.2552C100.28 20.4118 101.064 20.5236 101.377 21.2395C101.578 21.687 101.556 22.3134 101.556 22.8056C101.556 24.2373 100.996 25.6915 100.616 27.0562C100.437 27.705 101.332 28.0629 101.69 27.5036C102.541 26.1837 103.011 24.7295 103.391 23.2082C103.704 22.0449 103.66 20.8145 102.943 19.8077Z" fill="black"/>
<path id="Vector_34" d="M66.4211 72.4029C62.46 71.1501 58.3647 70.3895 54.3141 69.5841C50.2411 68.7787 46.1458 67.9733 42.0728 67.1456C37.9998 66.3178 33.9268 65.4901 29.8315 64.6623C27.7278 64.2372 25.6019 63.8122 23.4983 63.3871C21.4841 63.0068 19.4253 62.4699 17.3888 62.3356C16.6503 62.2909 16.6279 63.32 17.2321 63.5437C19.2239 64.3044 21.3946 64.6623 23.4759 65.1545C25.4228 65.6243 27.3922 66.0717 29.3391 66.5192C33.4569 67.4811 37.5746 68.4208 41.6923 69.3604C45.7429 70.3 49.7936 71.2396 53.8218 72.1792C57.7829 73.1188 61.7663 74.036 65.6155 75.3784C67.473 76.0271 68.3233 72.9846 66.4211 72.4029Z" fill="black"/>
</g>
</g>
</svg>
