<svg width="161" height="109" viewBox="0 0 161 109" fill="none" xmlns="http://www.w3.org/2000/svg">
<g id="Group 1171274406">
<g id="Group 1171274369">
<g id="Group">
<path id="Vector" d="M90.1149 41.504C89.855 44.789 89.3909 48.0553 88.7597 51.2845C88.2027 54.1426 87.6272 57.0006 86.7732 59.7844C86.0307 62.2342 85.0839 64.6469 83.5058 66.6883C82.0949 68.5256 80.3127 70.066 78.2706 71.161C76.4512 72.1446 73.945 73.2396 71.8472 72.7942C71.6986 72.757 71.5872 72.6828 71.513 72.5714C71.4759 72.5714 71.4573 72.5715 71.4202 72.5529C71.1788 72.4972 70.956 72.4415 70.7147 72.3859C70.3805 72.3116 70.1577 72.0889 70.0649 71.8477C67.6886 71.5136 65.3309 70.994 63.1774 69.8619C60.9125 68.6556 58.7218 66.9667 57.0139 65.0366C55.2131 62.9951 54.1735 60.6567 53.5051 58.0399C52.02 52.3609 50.5905 46.4778 51.0175 40.5575C51.0175 40.539 51.0174 40.5204 51.036 40.4833H51.0175C50.3677 40.0936 50.9618 39.2028 51.6115 39.4997C54.2106 40.6875 56.9396 41.5783 59.7429 42.2093C64.5326 43.2857 69.5637 43.7311 74.4648 43.8053C79.4216 43.8981 84.3227 43.2857 88.8154 41.1143C88.8711 41.0958 88.9082 41.0772 88.9639 41.0586C89.3723 40.6689 90.1706 40.8174 90.1149 41.504Z" fill="#FFE033"/>
<path id="Vector_2" d="M78.066 73.3139C77.7319 76.6731 74.2974 77.9908 71.3084 77.6938C68.6537 77.4154 64.6808 76.0235 65.4791 72.6273C65.5533 72.2932 65.9618 72.2746 66.1845 72.4417C66.4073 72.3489 66.6672 72.3674 66.9271 72.5345C68.3195 73.4067 70.1388 73.2583 71.7168 73.2397C73.5362 73.2211 75.3184 73.0541 77.045 72.4974C77.5277 72.3489 78.1217 72.7943 78.066 73.3139Z" fill="#FFE033"/>
</g>
<path id="Vector_3" d="M88.9814 103.861C87.4591 101.801 85.9925 99.8333 83.5977 98.7383C82.3538 98.163 81.0543 97.7176 79.8104 97.1423C79.272 96.8824 78.6223 96.6412 78.1767 96.2329C77.694 95.7875 77.4527 95.1008 77.2114 94.5255C75.095 89.6074 74.241 83.9655 74.8722 78.6577C74.8908 78.5464 74.8536 78.435 74.7979 78.3608C74.668 77.9339 74.1667 77.5813 73.684 77.8597C73.1828 78.1381 72.6259 78.268 72.1246 78.5464C71.9018 78.6763 71.6976 78.8062 71.512 78.9732C71.512 78.9546 71.4934 78.9175 71.4934 78.899C71.3078 78.0082 70.0268 78.3793 70.1382 79.2516C70.2124 79.7527 70.2681 80.2723 70.3052 80.792C70.0268 80.9404 69.804 81.2003 69.7669 81.5529C69.5998 82.8334 69.8411 84.2253 69.804 85.5245C69.7854 86.8421 69.674 88.1598 69.377 89.4404C68.8943 91.5561 67.9104 93.6346 66.2024 95.0266C64.4202 96.4927 62.0439 96.9938 60.2245 98.4228C58.8322 99.5178 57.904 101.021 57.4955 102.691L57.1057 103.341C56.9572 103.582 57.0129 103.861 57.1799 104.065C57.9411 104.993 59.0364 105.345 60.1689 105.624C61.5798 105.976 63.0278 106.236 64.4759 106.496C67.2421 106.96 70.0268 107.275 72.8115 107.331C75.4663 107.387 78.1396 107.201 80.7572 106.756C81.3328 106.663 81.9268 106.552 82.5395 106.422C82.5952 106.44 82.6694 106.459 82.7437 106.44C82.985 106.403 83.2449 106.366 83.4863 106.31C83.6719 106.477 83.9318 106.57 84.2474 106.514C84.4331 106.477 84.6187 106.44 84.8044 106.385C85.6398 106.236 86.4381 105.995 87.2364 105.679C87.2549 105.679 87.2549 105.679 87.2735 105.679C87.3478 105.661 87.4034 105.624 87.4777 105.605C87.6077 105.549 87.7005 105.475 87.7747 105.401C88.5173 105.605 89.557 104.64 88.9814 103.861Z" fill="#FFE033"/>
<path id="Vector_4" d="M93.047 31.7973C92.2302 30.7951 90.9677 30.3126 89.8167 29.8486C87.0134 28.7351 84.0616 27.9185 81.0913 27.3988C74.3151 26.2111 67.539 26.5637 60.7257 27.3432C60.2987 27.3988 60.2615 28.067 60.7071 28.0484C65.9424 27.7329 71.2519 27.6958 76.4872 28.2154C79.1048 28.4753 81.7225 28.9207 84.2658 29.6259C85.4911 29.96 86.6978 30.3682 87.886 30.8508C88.9813 31.2962 90.2437 31.7416 91.1534 32.5211C93.3626 34.4141 89.7053 36.5112 88.2202 37.2164C86.0295 38.2372 83.6161 38.7568 81.2212 38.9981C75.7817 39.5177 70.1566 39.1466 64.7357 38.5156C61.6168 38.1629 58.4793 37.7361 55.4718 36.8081C54.228 36.437 52.8356 36.0101 51.9631 35.0079C51.2205 34.1542 50.8863 32.6695 52.0002 31.9457C52.5014 31.6117 52.093 30.8508 51.5361 31.1292C49.4939 32.1685 49.7167 35.0265 51.1648 36.4555C52.093 37.3835 53.3369 37.9217 54.5621 38.3485C56.0844 38.8867 57.6625 39.2765 59.2405 39.592C65.5154 40.8168 72.1244 41.4664 78.5107 41.2623C81.3512 41.1695 84.2287 40.8725 86.9392 39.9817C89.3897 39.1651 92.4529 37.8103 93.5297 35.2863C94.0124 34.0986 93.8639 32.7995 93.047 31.7973Z" fill="black"/>
<path id="Vector_5" d="M89.8174 59.3576C90.5785 59.1163 91.3397 58.875 92.0823 58.5967C95.9624 57.1676 99.6011 55.1447 101.977 51.6186C103.37 49.54 104.447 46.7747 103.815 44.2693C103.184 41.7639 100.956 40.3348 98.4315 40.7802C96.7978 41.0586 95.2755 41.9123 94.013 43.0444C93.3818 43.6012 92.8249 44.2322 92.3422 44.8817C92.3422 44.9374 92.3236 44.9745 92.3236 45.0302L92.1009 46.7747C92.4722 46.9789 92.9734 46.9603 93.289 46.5335C93.4561 46.2922 93.6418 46.0695 93.846 45.8468C94.4772 45.123 95.2383 44.4734 96.0552 43.9538C97.0948 43.2857 98.4686 42.5804 99.7496 42.766C102.72 43.1558 102.163 47.0717 101.365 49.0018C99.7496 52.9177 96.1851 55.4602 92.435 57.3161C91.6924 57.6873 90.9313 58.0213 90.1887 58.3368L89.8174 59.3576Z" fill="black"/>
<path id="Vector_6" d="M52.3346 47.7765C52.0376 48.092 51.425 48.1662 51.2207 47.6837C51.0722 47.3311 50.8866 46.997 50.6638 46.663C49.6427 45.104 47.9719 43.9348 46.0597 43.8606C44.2404 43.7864 42.3839 44.8628 41.567 46.4959C40.5459 48.5374 41.6227 51.0614 42.7552 52.8059C45.0386 56.295 48.7516 58.1509 52.3718 59.9325C52.9844 60.2294 53.597 60.5449 54.1911 60.8419C54.8038 61.1574 54.3396 62.1224 53.7084 61.9183C53.43 61.8255 53.1701 61.7513 52.8916 61.6585C49.9769 60.6748 47.0622 59.3386 44.6302 57.4827C40.6945 54.4948 36.4246 48.1105 40.9358 43.7492C42.6809 42.0604 45.3728 41.4108 47.6563 42.1903C48.7145 42.5615 49.6613 43.1553 50.441 43.9163C51.1465 44.6029 51.722 45.4566 52.1304 46.3846L52.3346 47.7765Z" fill="black"/>
<path id="Vector_7" d="M80.1997 69.8428C80.1997 69.8614 80.1811 69.8614 80.1811 69.8799C79.7913 70.5852 79.9955 71.6245 79.9769 72.4411C79.9769 72.4967 79.9769 72.5338 79.9769 72.5895C79.9026 73.5546 79.6984 74.5568 79.1415 75.3733C77.8419 77.2663 74.9087 77.3035 72.8666 77.1921C71.7341 77.1179 70.6016 76.9694 69.4878 76.7096C68.5409 76.4869 67.5941 76.2642 66.8516 75.6146C66.1647 75.0022 65.8119 74.167 65.7005 73.2762C65.6077 72.5338 65.682 71.7544 65.8862 71.0491C65.9233 70.9378 65.9233 70.8079 65.9047 70.6965H65.8862L64.4567 70.1398C64.401 70.1954 64.3453 70.2697 64.3081 70.3439C63.9554 71.0306 63.7326 71.7729 63.6584 72.5338C63.4913 74.0742 63.8812 75.6517 64.9208 76.8952C65.9047 78.0829 67.3899 78.6768 68.9679 78.9552C69.4506 79.048 69.9519 79.1037 70.4346 79.1408C71.1215 79.1965 71.7712 79.1965 72.4025 79.1965C73.5906 79.1779 74.9458 79.048 76.2268 78.7139C76.6909 78.584 77.1551 78.4355 77.6006 78.25C78.5103 77.8602 79.3271 77.3406 79.9398 76.5982C80.6824 75.726 81.0537 74.6495 81.2208 73.5175C81.3136 72.9421 81.3507 72.3668 81.3507 71.7915C81.3507 71.7358 81.3507 71.6801 81.3507 71.6245C81.3507 71.0491 81.4435 70.381 81.1094 69.8985C80.998 69.75 80.8309 69.6387 80.6452 69.6387L80.1997 69.8428Z" fill="black"/>
<path id="Vector_8" d="M74.7791 107.295C71.3632 107.332 67.8916 106.887 64.5685 106.163C62.9162 105.792 61.2825 105.346 59.6859 104.827C59.3146 104.697 58.9248 104.567 58.5535 104.437C58.2007 104.307 57.6252 104.196 57.3282 103.954C56.9383 103.657 57.1611 103.36 57.3282 102.971C57.4953 102.562 57.6809 102.135 57.8851 101.746C58.6092 100.335 59.5745 99.3517 60.9669 98.6279C62.2107 97.9783 63.5288 97.4958 64.717 96.772C67.1861 95.2316 68.8198 92.7262 69.7109 89.998C70.8805 86.3791 70.6763 82.5188 70.3978 78.7885C70.3235 77.8791 68.9497 77.8235 68.9497 78.77C68.9126 82.3518 68.9497 86.0079 67.743 89.4227C67.2603 90.8146 66.5549 92.1323 65.5895 93.2458C64.6056 94.3965 63.436 95.1945 62.1179 95.9183C60.8184 96.6421 59.4817 97.403 58.4792 98.498C57.4025 99.6486 56.7898 101.059 56.27 102.525C56.0658 103.119 55.8059 103.713 56.0844 104.325C56.3814 104.938 57.0869 105.142 57.6624 105.365C59.3146 106.033 61.0226 106.608 62.7677 106.998C66.7591 107.907 70.7134 108.093 74.7791 107.722C75.039 107.685 75.0576 107.295 74.7791 107.295Z" fill="black"/>
<path id="Vector_9" d="M91.9513 104.269C91.6357 104.455 91.3201 104.64 91.0045 104.807C90.8931 104.436 90.8559 104.028 90.7631 103.638C90.7445 103.564 90.726 103.508 90.7074 103.434C90.5403 102.84 90.299 102.265 90.002 101.727C89.445 100.706 88.6653 99.8336 87.7927 99.0727C84.8224 96.4745 80.1069 96.8271 77.5635 93.5978C76.0598 91.7049 75.9113 89.2365 75.8741 86.9167C75.8184 84.1329 75.9484 81.3305 76.1897 78.5652C76.264 77.6373 77.6935 77.6373 77.6563 78.5838C77.5264 81.7202 77.6007 84.8567 77.8049 87.9931C77.9348 90.1645 78.3989 92.2245 80.3668 93.4494C82.0191 94.4887 83.9498 94.897 85.732 95.6579C87.6071 96.4559 89.2594 97.6251 90.3732 99.3511C90.9302 100.223 91.3572 101.226 91.6171 102.228C91.6728 102.469 91.7471 102.729 91.8028 103.007C91.8956 103.434 91.9698 103.861 91.9513 104.269Z" fill="black"/>
<path id="Vector_10" d="M91.9517 104.27C91.6361 104.455 91.3205 104.641 91.0049 104.808C87.886 106.478 84.4144 107.258 80.8499 107.183C80.5343 107.183 80.5529 106.719 80.8499 106.701C84.3215 106.478 87.7374 105.365 90.7635 103.639C91.1162 103.434 91.4504 103.23 91.7846 103.008C91.7846 103.008 91.7846 103.008 91.8032 103.008C91.896 103.434 91.9702 103.861 91.9517 104.27Z" fill="black"/>
<path id="Vector_11" d="M93.1221 39.0166C92.6579 42.45 92.1753 45.8648 91.8225 49.2982C91.4884 52.5088 91.0614 55.7381 90.0217 58.8003C88.2952 63.9039 84.378 67.0404 79.4584 69.2117C74.5944 71.3646 68.8207 71.179 64.0124 68.9519C61.4505 67.7827 59.1856 67.1146 57.3477 64.9803C55.2498 62.5306 54.2659 59.5612 53.6718 56.4247C52.2609 48.8713 51.5369 41.1137 51.1841 33.4489C51.147 32.8179 50.1816 32.7808 50.1816 33.4304C50.2002 40.7425 50.6086 48.0733 51.5369 55.3298C51.9639 58.7075 52.6693 62.0852 54.5629 64.9803C56.2338 67.5414 58.5358 69.6943 61.172 71.2532C66.2402 74.2597 72.6265 74.9835 78.2145 73.1091C83.6354 71.2903 88.2395 67.3187 90.7272 62.178C92.3609 58.7817 93.0107 55.0885 93.4005 51.3767C93.8461 47.2752 94.0132 43.1552 94.2359 39.0351C94.2731 38.3113 93.2149 38.3299 93.1221 39.0166Z" fill="black"/>
<path id="Vector_12" d="M89.4828 29.3847C89.2972 28.067 88.6288 26.9164 87.4036 26.341C86.2897 25.8214 84.9901 25.8585 84.099 26.7864C83.5792 27.3246 84.2475 28.2711 84.9159 27.8629C85.6956 27.3803 86.661 27.6773 87.1993 28.3825C87.9605 29.3661 87.8491 30.758 87.6635 31.9087C87.2922 34.3955 86.4011 36.8267 85.3057 39.0909C83.0965 43.6378 80.1076 47.8136 77.1743 51.8965C74.1668 56.0908 70.8994 59.9881 67.1122 63.4957C63.5292 66.7992 59.5935 69.6944 55.3978 72.1627C54.2097 72.8679 52.873 73.833 51.5178 74.167C50.7381 74.3712 49.7355 74.2598 49.5313 73.3319C49.3828 72.6452 49.5499 71.8286 49.6984 71.1605C50.3482 68.4324 52.2418 66.2053 53.9312 64.0525C54.2468 63.6442 53.727 63.0689 53.3557 63.4772C51.5178 65.4444 49.7356 67.6343 48.8444 70.214C48.4731 71.309 48.1204 72.7751 48.4917 73.9072C48.8259 74.9279 49.8841 75.4847 50.9237 75.4661C52.2789 75.4476 53.5599 74.6124 54.7295 74C56.029 73.2948 57.31 72.571 58.5538 71.7729C60.9116 70.2511 63.1765 68.5808 65.33 66.7621C69.8784 62.9575 73.777 58.5034 77.3414 53.7895C80.9801 48.9828 84.8973 44.1389 87.3664 38.5898C88.0162 37.1051 88.5917 35.5833 88.9816 34.0058C89.3714 32.484 89.7056 30.9065 89.4828 29.3847Z" fill="black"/>
<path id="Vector_13" d="M49.5124 73.6655C49.8652 72.9417 48.8255 72.1994 48.2315 72.8118C46.672 74.445 46.1151 76.8205 46.7091 78.9919C47.3404 81.2561 49.0298 82.8892 50.9605 84.1141C51.4803 84.4482 52.3714 84.2626 52.6313 83.6687C54.3022 79.9941 52.817 75.8369 49.5124 73.6655Z" fill="black"/>
<path id="Vector_14" d="M50.8494 67.4676C50.7937 67.1707 50.5895 66.9109 50.2554 66.8181C46.988 65.9458 44.1661 68.2471 42.5881 70.8825C42.2725 71.4021 42.5324 72.3115 43.2193 72.4228C46.4496 72.9054 49.8841 71.7918 51.165 68.5626C51.3135 68.1543 51.1465 67.746 50.8494 67.4676Z" fill="black"/>
<path id="Vector_15" d="M66.7777 66.9482C66.5364 66.8555 66.2951 66.7812 66.0537 66.7255C65.7381 66.2801 65.1812 66.0017 64.6242 66.1317C64.3458 66.2059 64.0673 66.2987 63.7888 66.3915C62.0623 66.3358 60.3358 66.6884 58.665 67.1895C56.4 67.8762 54.2837 69.0825 53.2255 71.2539C52.8356 71.6807 52.8727 72.553 53.4668 72.8128C58.6835 75.1141 63.5104 71.9962 67.1305 68.3402C67.5946 67.8576 67.3347 67.1524 66.7777 66.9482Z" fill="black"/>
<path id="Vector_16" d="M81.0917 57.6871C79.9778 57.6129 78.9196 57.4458 77.8057 57.5201C76.7475 57.6129 75.6893 57.817 74.6682 58.1511C73.0345 58.7078 71.5493 59.5801 70.3054 60.7307C69.9527 60.9349 69.6 61.1761 69.2658 61.3988C68.5232 61.9185 68.746 63.1805 69.7485 63.1805C72.3104 63.1805 74.9652 63.3661 77.4158 62.4567C79.2909 61.77 81.1102 60.5451 81.7971 58.5779C81.9457 58.1325 81.5187 57.7242 81.0917 57.6871Z" fill="black"/>
<path id="Vector_17" d="M68.9874 52.6572C68.7647 52.3046 68.1892 52.1561 67.8736 52.5088C66.5926 54.012 65.9614 56.2576 65.7015 58.1692C65.4416 60.0807 65.4045 62.1593 66.4627 63.8667C66.4998 63.9224 66.5369 63.9595 66.574 63.9966C66.5555 64.0152 66.5555 64.0338 66.5369 64.0523C66.277 64.4235 66.8896 64.906 67.1681 64.5349C67.2424 64.4421 67.3166 64.3493 67.3909 64.2565C67.6879 64.2008 67.9664 63.9966 68.0592 63.6626C68.1149 63.4399 68.1706 63.1986 68.2263 62.9759C68.9875 61.584 69.433 60.0436 69.6743 58.429C69.9528 56.3875 70.1199 54.4574 68.9874 52.6572Z" fill="black"/>
<path id="Vector_18" d="M76.5614 42.5614C76.0601 42.1345 75.4475 42.2459 75.0762 42.747C74.4821 43.545 74.2779 44.5657 74.1294 45.5308C73.9623 46.533 73.8323 47.5351 73.7581 48.5559C73.6281 50.6159 73.8695 52.6574 74.8163 54.5132C75.169 55.1999 76.4686 55.1071 76.5799 54.2905C76.6171 54.0678 76.6356 53.8451 76.6728 53.6224C77.7681 51.8779 78.2322 49.9663 78.3065 47.9063C78.3993 45.8648 78.1765 43.9533 76.5614 42.5614Z" fill="black"/>
<path id="Vector_19" d="M89.1675 44.3618C88.0721 44.5659 86.9397 44.603 85.8629 44.9C84.8047 45.1783 83.7837 45.6238 82.8554 46.1805C81.0361 47.2569 79.5694 48.7973 78.5855 50.6717C78.3627 50.8573 78.1585 51.0615 77.9543 51.2656C77.3416 51.8595 77.9728 52.973 78.7897 52.7132C79.9964 52.342 81.2403 52.175 82.4284 51.7296C83.5609 51.3027 84.6562 50.7831 85.6587 50.115C87.4409 48.9087 89.186 47.2384 89.9658 45.1783C90.1328 44.6587 89.5945 44.2875 89.1675 44.3618Z" fill="black"/>
<path id="Vector_20" d="M93.8821 21.2376C90.4105 22.4439 88.0898 25.6175 88.3869 29.3292C88.4054 29.6633 88.721 29.8117 88.981 29.7746C89.2037 29.9231 89.4822 29.9602 89.7793 29.7561C92.3227 27.9373 94.4391 25.0607 94.7361 21.8686C94.7361 21.4603 94.2534 21.1077 93.8821 21.2376ZM89.4265 28.0115C89.7793 25.8773 91.0417 24.0028 92.9539 23.0007C92.1741 24.9679 91.1159 26.6753 89.4265 28.0115Z" fill="black"/>
<path id="Vector_21" d="M93.1776 23.3163C93.6602 22.3512 92.1751 21.5346 91.5439 22.4811C90.8198 23.4647 90.1329 24.4669 89.4275 25.4691C89.1861 25.8217 89.2233 26.1558 89.4089 26.4341C89.149 27.0466 88.9076 27.659 88.7034 28.29C88.3878 29.1994 89.7802 29.5335 90.1144 28.6798C90.43 27.9003 90.8013 27.1394 91.1911 26.397C91.8409 25.7846 92.4721 25.135 93.0476 24.4298C93.3446 24.1143 93.3446 23.6689 93.1776 23.3163Z" fill="black"/>
<path id="Vector_22" d="M87.7377 24.1328C87.5891 23.3719 87.0508 22.778 86.4196 22.2955C85.7327 21.6459 84.8787 21.1448 84.0618 20.7551C83.7276 20.588 83.3749 20.4581 83.0407 20.3468C82.2982 20.087 81.5184 19.957 80.7201 20.0127C80.6459 20.0127 80.5716 20.0313 80.4974 20.0498C80.0518 20.1055 79.5877 20.1983 79.1421 20.3839C78.7151 20.5509 78.3995 21.0335 78.6966 21.4789C80.5345 24.3369 83.9133 24.8566 87.0507 25.005C87.552 25.0607 87.8119 24.5596 87.7377 24.1328Z" fill="black"/>
<path id="Vector_23" d="M78.1949 23.9466C77.6937 23.5383 77.0439 23.6496 76.4498 23.6496C76.1713 23.6496 75.9114 23.8723 75.8743 24.1507C75.8371 24.4105 76.0042 24.7446 76.2827 24.7817C76.8582 24.8745 77.5452 25.1158 78.065 24.8003C78.362 24.6332 78.4548 24.1693 78.1949 23.9466Z" fill="black"/>
<path id="Vector_24" d="M59.6488 74.5382C59.2218 74.2042 58.8319 74.1856 58.3307 74.3155C57.9965 74.4083 57.6809 74.5197 57.3467 74.6125C56.9754 74.7238 56.7155 75.095 56.7712 75.4847C56.8269 75.8559 57.1611 76.2085 57.5509 76.1714C58.2935 76.1157 59.3332 76.2456 59.7787 75.5033C59.9273 75.2249 59.9087 74.7424 59.6488 74.5382Z" fill="black"/>
<path id="Vector_25" d="M87.8855 46.1432C87.0872 46.6443 86.5303 47.4424 85.8434 48.0919C85.0637 48.8343 84.2097 49.4653 83.3 50.0035C81.5549 51.0242 79.5314 51.6923 77.5264 52.0635C77.0994 52.1377 77.2108 52.8058 77.6192 52.8058C79.8655 52.7873 81.9448 52.1748 83.9312 51.0984C84.8966 50.5788 85.7877 49.9478 86.6231 49.2611C87.44 48.5744 88.3311 47.795 88.6653 46.7557C88.8323 46.3103 88.2754 45.8834 87.8855 46.1432Z" fill="black"/>
<path id="Vector_26" d="M62.21 45.4941C62.1729 44.5661 60.762 44.5661 60.762 45.4941C60.762 48.8718 60.6692 52.3237 61.0776 55.6828C61.189 56.6665 62.6556 56.7407 62.6741 55.6828C62.7298 52.3051 62.3586 48.8903 62.21 45.4941Z" fill="white"/>
<path id="Vector_27" d="M61.8762 50.838C61.3007 50.3926 60.688 50.4297 60.0197 50.207C59.24 49.9472 58.6645 49.3347 58.4417 48.5367C58.2004 47.7758 58.3118 46.885 58.8501 46.2725C59.5556 45.4745 60.391 45.5858 61.2821 45.9385C61.7463 46.1241 61.9876 45.4745 61.7277 45.1776C60.948 44.2311 59.4256 44.3239 58.4603 44.9548C57.4392 45.6415 56.8823 46.9035 56.8451 48.0913C56.8266 49.409 57.4578 50.6524 58.516 51.4133C59.4999 52.1185 61.0965 52.6567 61.9505 51.5247C62.099 51.3576 62.0618 50.9679 61.8762 50.838Z" fill="white"/>
<path id="Vector_28" d="M59.0727 50.8018C58.2558 52.0823 57.3833 53.4557 56.9749 54.9404C56.7707 55.6456 57.7546 56.0168 58.1259 55.4229C58.9242 54.1795 59.4997 52.769 60.2423 51.4885C60.6692 50.7276 59.5182 50.0594 59.0727 50.8018Z" fill="white"/>
</g>
</g>
</svg>
