<svg width="161" height="109" viewBox="0 0 161 109" fill="none" xmlns="http://www.w3.org/2000/svg">
<g id="Group 1171274404">
<g id="Group">
<path id="Vector" d="M96.3028 34.6409C95.6109 33.2575 94.7172 32.5658 93.564 31.586C91.4595 29.828 87.7117 29.828 85.3189 30.8367C82.5225 31.9895 79.7837 34.6409 77.3332 36.3124C74.162 38.4739 73.9314 37.6381 70.0683 35.7072C65.0809 39.2808 63.1493 36.4565 61.5061 35.2172C59.661 33.8339 57.3259 31.6148 55.106 30.9808C51.3006 29.8568 47.9276 29.6839 44.7564 32.537C41.9023 35.1308 39.9131 41.6729 40.8068 48.1861C41.0663 50.0306 44.9582 54.44 48.3312 56.1404C50.1186 57.0626 52.3384 58.0713 54.3276 58.4748C56.1727 58.8494 68.3386 64.1811 69.3476 64.3828C70.6449 64.6134 72.1152 62.9995 73.153 62.4519C75.69 61.1262 78.7747 60.4057 81.5134 59.5699C86.7315 57.9848 92.4108 57.4084 96.101 52.9702C98.119 50.5494 99.2721 47.8115 99.4451 44.6701C99.5028 43.8632 98.5226 39.0215 96.3028 34.6409Z" fill="#FFE033"/>
<g id="Group_2">
<path id="Vector_2" d="M4.51103 69.5423C5.23176 68.0725 5.866 66.545 6.41375 64.9887C6.99033 63.4325 7.50926 61.8762 7.99935 60.2623L10.9688 50.6941C11.4589 49.0802 12.0066 47.4952 12.5832 45.9101C13.1598 44.325 13.7652 42.7399 14.4571 41.1548C15.149 39.5986 15.9274 38.0423 16.8787 36.5437C17.8301 35.0739 18.9256 33.604 20.3671 32.3936C21.0878 31.7884 21.9238 31.2696 22.8175 30.8662C23.7113 30.4627 24.7203 30.2321 25.7293 30.2033C27.6897 30.1457 29.6789 30.7797 31.2356 32.019C32.014 32.6242 32.6771 33.3735 33.1672 34.2092C33.6573 35.045 34.0033 35.9673 34.2051 36.8895C34.4069 37.8117 34.4357 38.7628 34.4069 39.685C34.3492 40.6072 34.2051 41.5295 33.9168 42.3941C33.3402 44.1521 32.2735 45.7948 30.8032 46.9188C30.0825 47.4952 29.2464 47.9563 28.3527 48.2733C27.459 48.5615 26.4788 48.7344 25.441 48.4462C24.9221 48.3021 24.4031 48.0139 24.0284 47.524C23.6536 47.0629 23.5095 46.4576 23.5095 45.9389C23.4806 44.9302 23.8554 43.9792 24.4032 43.2298C24.9221 42.4805 25.5851 41.9041 26.1329 41.2989C26.6807 40.7225 27.1707 40.1173 27.3437 39.3968C27.3725 39.1951 27.5743 39.0798 27.7761 39.1374C27.9491 39.1663 28.0644 39.3392 28.0356 39.5409C27.8915 40.492 27.3437 41.2701 26.8248 41.933C26.2771 42.5958 25.7293 43.201 25.3257 43.8639C24.9221 44.4979 24.7491 45.2184 24.8068 45.8812C24.8644 46.5441 25.2104 46.8611 25.8158 47.0052C26.4212 47.1205 27.1419 47.0052 27.805 46.7458C28.468 46.4865 29.1311 46.0542 29.6789 45.5642C30.8032 44.5844 31.5816 43.2298 31.9564 41.7889C32.3312 40.3479 32.36 38.7628 32.0141 37.3794C31.6681 35.9673 30.8609 34.7568 29.7654 33.9211C28.6699 33.1141 27.2572 32.6818 25.8734 32.7971C24.5185 32.8836 23.2788 33.4888 22.1545 34.4398C21.059 35.4197 20.1076 36.6589 19.2427 37.9846C18.4067 39.3392 17.6571 40.7513 16.9652 42.25C15.5814 45.2184 14.3994 48.3021 13.2462 51.4435C12.0931 54.556 11.0264 57.7262 9.78675 60.8675C8.54709 63.98 7.2498 67.1502 5.40473 70.0322C5.26058 70.2916 4.91464 70.3492 4.65518 70.2051C4.45337 70.0898 4.36689 69.8016 4.51103 69.5423Z" fill="black"/>
<path id="Vector_3" d="M46.2274 30.5777C47.467 29.8284 48.8508 29.2808 50.3499 29.0791C51.849 28.8774 53.4058 29.1079 54.8184 29.6267C56.231 30.1454 57.5284 30.8948 58.6815 31.7305C59.8347 32.5663 60.9302 33.4885 61.968 34.3531C62.4869 34.7854 63.0059 35.2177 63.5248 35.5924C64.0437 35.967 64.5626 36.284 65.0239 36.4858C65.514 36.6875 65.8888 36.7163 66.1194 36.6299C66.4365 36.5146 66.8113 36.284 67.0996 35.9382C67.3879 35.6212 67.5608 35.2177 67.5897 34.8719C67.6185 34.7854 67.5897 34.699 67.6185 34.5837L67.5897 34.209L67.532 33.8344L67.4455 33.4309C67.1284 32.3646 66.5806 31.2694 65.8599 30.2607C64.4185 28.2145 62.4293 26.4565 60.2383 25.0732C58.0473 23.661 55.568 22.71 53.0022 22.1912C51.7337 21.9606 50.4076 21.8454 49.1103 21.903C47.813 21.9606 46.4868 22.1624 45.1607 22.4506C43.8634 22.7388 42.5661 23.1422 41.3553 23.661C40.1444 24.1798 38.9625 24.8426 37.9823 25.7072C37.8093 25.8513 37.5787 25.8225 37.4345 25.6784C37.2904 25.5343 37.3192 25.3037 37.4345 25.1596C38.4147 24.0933 39.6255 23.2864 40.8652 22.6235C42.1336 21.9606 43.4309 21.4131 44.7859 21.0096C46.1409 20.6061 47.5247 20.2891 48.9661 20.1162C50.4076 19.9433 51.8778 19.9721 53.3193 20.145C54.7607 20.3179 56.1734 20.6638 57.5572 21.1249C58.941 21.586 60.2671 22.1912 61.5356 22.9117C64.0725 24.3527 66.3789 26.1683 68.2239 28.5315C68.6852 29.1368 69.1176 29.7708 69.4635 30.4336C69.8383 31.1253 70.1555 31.8458 70.3861 32.6528L70.5302 33.258L70.6167 33.892C70.6455 34.1226 70.6456 34.3243 70.6456 34.5549C70.6456 34.7854 70.6455 35.0736 70.5879 35.3042C70.4437 36.3129 69.9536 37.2063 69.3194 37.898C68.6852 38.5896 67.8491 39.1372 66.8401 39.3678C66.5807 39.4254 66.3212 39.4542 66.0329 39.4542C65.7446 39.4542 65.514 39.4254 65.2545 39.3966C64.7644 39.3101 64.332 39.1372 63.9284 38.9643C63.15 38.5896 62.5158 38.1285 61.968 37.6386C61.3914 37.1775 60.8725 36.6875 60.3536 36.1976C59.3446 35.2465 58.3644 34.2955 57.3554 33.4597C56.3463 32.6239 55.2797 31.8746 54.1553 31.3559C53.0022 30.8371 51.7914 30.5777 50.5517 30.6065C49.3121 30.6354 48.0436 31.01 46.8328 31.5576C46.5445 31.7017 46.1985 31.5576 46.0544 31.2694C45.8526 31.0389 45.9679 30.7218 46.2274 30.5777Z" fill="black"/>
<path id="Vector_4" d="M36.3092 52.8553C36.2227 53.2876 36.0786 53.6334 35.9344 53.9504C35.7903 54.2675 35.5885 54.5557 35.3867 54.815C34.983 55.3338 34.6083 55.8814 34.2623 56.429C33.5704 57.5241 32.9362 58.5904 32.5038 59.7432C32.3019 60.3196 32.1001 60.9248 31.9848 61.5589C31.8983 61.8759 31.8695 62.1929 31.8118 62.5099L31.6965 63.4898C31.5812 64.8155 31.5812 66.1988 31.5524 67.6398C31.5524 67.8416 31.3794 68.0145 31.1776 67.9857C31.0335 67.9857 30.8893 67.8992 30.8605 67.7551C30.2839 66.4294 29.8803 65.0172 29.6785 63.5186C29.4767 62.02 29.5344 60.4637 29.938 58.9363C30.3127 57.4088 31.0623 55.9678 32.0137 54.7574C32.5038 54.1522 33.0227 53.6046 33.5704 53.1147C34.1182 52.5959 34.7524 52.1924 35.6173 52.0772C35.9632 52.0195 36.2804 52.2501 36.338 52.6247C36.338 52.6824 36.338 52.7688 36.338 52.8265L36.3092 52.8553Z" fill="black"/>
<path id="Vector_5" d="M33.2829 43.9208C33.8019 44.209 34.3496 44.3531 34.8685 44.3531C35.128 44.3531 35.3875 44.3243 35.6181 44.2378C35.8776 44.1514 36.1082 44.0649 36.3388 43.9496C36.8001 43.7191 37.2325 43.3444 37.6073 42.941C37.9244 42.4798 38.2415 42.0475 38.4722 41.5288C38.9334 40.5201 39.1352 39.4249 39.1641 38.3298C39.1641 37.7534 39.1064 37.177 39.0199 36.6006C38.9334 36.0242 38.7893 35.4478 38.6163 34.9002C38.2415 33.8051 37.7514 32.7388 37.0307 31.8165C36.3388 30.8943 35.4739 30.145 34.4361 29.6839C33.4271 29.2228 32.2451 29.1075 31.1208 29.3668C29.9676 29.5974 28.8433 30.1738 27.8054 30.8943C27.6901 30.9807 27.5171 30.9519 27.4018 30.8367C27.3153 30.7214 27.3442 30.5773 27.4307 30.4908C28.3532 29.5398 29.4487 28.7328 30.7748 28.2717C32.0721 27.7818 33.6289 27.7529 34.9838 28.2141C36.3676 28.6752 37.5497 29.5686 38.501 30.6349C39.4235 31.7013 40.1442 32.9405 40.6343 34.2374C40.865 34.9002 41.0668 35.5631 41.2109 36.2548C41.3262 36.9464 41.4127 37.6381 41.4127 38.3586C41.4127 39.7996 41.038 41.2694 40.2884 42.5375C39.9136 43.1715 39.4524 43.7479 38.8758 44.209C38.328 44.6989 37.7226 45.1313 37.0019 45.3906C36.31 45.6788 35.5028 45.7653 34.7532 45.6212C34.0037 45.4771 33.3118 45.1024 32.8217 44.6125C32.6487 44.4396 32.6487 44.1802 32.7928 44.0073C32.8793 43.8632 33.11 43.8344 33.2829 43.9208Z" fill="black"/>
<path id="Vector_6" d="M40.865 41.3277C41.3839 41.5294 42.0182 41.5583 42.5659 41.443C42.7101 41.4142 42.8254 41.3565 42.9407 41.3277L43.3443 41.1548C43.6037 41.0107 43.8632 40.8666 44.0938 40.6936C44.5551 40.3478 44.9011 39.8867 45.1317 39.3968C45.3623 38.878 45.5065 38.3016 45.5641 37.7252C45.6795 36.5148 45.5065 35.2467 45.2182 34.0363C44.9011 32.8259 44.411 31.6731 43.7479 30.6356C43.0848 29.6269 42.3064 28.7335 41.3551 28.0706C40.4037 27.4078 39.2794 27.0619 38.0974 27.0043C36.8866 26.9755 35.6469 27.2348 34.4361 27.6671C33.8307 27.8977 33.2253 28.1571 32.6487 28.4453C32.0721 28.7335 31.4955 29.0793 30.8901 29.3963C30.746 29.4828 30.573 29.4251 30.5153 29.281C30.4577 29.1658 30.4865 29.0217 30.573 28.9352C31.582 28.013 32.7064 27.1772 33.946 26.5144C35.1857 25.8515 36.5695 25.3616 38.0686 25.2463C39.5677 25.131 41.1533 25.4768 42.4794 26.255C43.8344 27.0331 44.8722 28.2147 45.593 29.4828C46.3137 30.7797 46.775 32.163 47.0632 33.5752C47.3227 34.9874 47.4092 36.4283 47.2074 37.8981C47.0921 38.6186 46.8614 39.368 46.4867 40.0596C46.0831 40.7225 45.5641 41.3565 44.9011 41.76C44.5839 41.9905 44.238 42.1346 43.892 42.2787C43.7191 42.3364 43.5461 42.4228 43.3443 42.4805C43.1425 42.5381 42.9407 42.5669 42.7389 42.5958C41.9605 42.6534 41.1821 42.5093 40.4902 42.1058C40.2884 41.9905 40.2307 41.7312 40.3461 41.5294C40.4614 41.2989 40.6632 41.2412 40.865 41.3277Z" fill="black"/>
<path id="Vector_7" d="M24.3454 39.8288C24.4031 40.4052 24.4031 40.9816 24.4031 41.558C24.4319 42.1344 24.4608 42.7108 24.4608 43.2584C24.5184 44.3823 24.5473 45.5351 24.5473 46.6879C24.6049 48.9935 24.5761 51.3855 24.0283 53.7487C23.913 54.3539 23.7112 54.9303 23.5671 55.5067C23.3941 56.0831 23.1635 56.6595 22.9617 57.2071C22.731 57.7547 22.4716 58.3022 22.2121 58.8498C21.9526 59.3974 21.6355 59.9161 21.3472 60.4349C20.1364 62.4811 18.6085 64.2967 17.0229 65.9683C16.8787 66.1124 16.6481 66.1124 16.5327 65.9683C16.4174 65.853 16.3886 65.6801 16.4751 65.536C17.6571 63.5474 18.7526 61.5877 19.6175 59.5415C20.4824 57.4953 21.0878 55.3915 21.4049 53.2588C21.6932 51.0973 21.8662 48.907 22.068 46.6014C22.2698 44.3247 22.5869 41.9615 23.3076 39.7135C23.3941 39.4253 23.7112 39.2812 23.9995 39.3677C24.1725 39.3965 24.3166 39.5982 24.3454 39.8288Z" fill="black"/>
<path id="Vector_8" d="M28.9302 38.8203C29.2185 39.3102 29.1608 39.8002 28.959 40.2613C28.7284 40.7224 28.3536 41.1547 27.8635 41.4717C27.3735 41.7887 26.7969 41.904 26.2492 41.8752C25.7014 41.8464 25.2113 41.7023 24.7789 41.4717C23.914 41.0106 23.251 40.2325 22.9627 39.3679C22.6456 38.5033 22.7032 37.5522 23.078 36.8029C23.1357 36.6588 23.3086 36.6012 23.4527 36.6588C23.5392 36.6876 23.5969 36.7741 23.5969 36.8605V36.8894C23.741 37.6099 23.9717 38.1863 24.3464 38.6186C24.7212 39.0509 25.1825 39.3679 25.6437 39.512C26.1338 39.6561 26.5086 39.6273 26.7969 39.512C26.941 39.4543 27.114 39.3679 27.287 39.195C27.4599 39.022 27.6618 38.8491 28.123 38.5897L28.1807 38.5609C28.4401 38.4745 28.7861 38.5609 28.9302 38.8203Z" fill="black"/>
<path id="Vector_9" d="M41.4993 41.9036C41.384 43.5751 41.384 45.2755 41.7011 46.7453C41.8741 47.4946 42.1047 48.2151 42.4507 48.8491C42.7678 49.512 43.2003 50.1172 43.6904 50.6936C44.6705 51.8464 45.9678 52.7686 47.3805 53.5756C48.7931 54.3825 50.321 55.0166 51.9066 55.593C53.4922 56.1694 55.1066 56.7169 56.7499 57.2069C58.3932 57.6968 60.0653 58.1867 61.7374 58.7631C63.4094 59.3395 65.1104 59.9159 66.7824 60.7805C67.6185 61.2128 68.4545 61.7316 69.2617 62.4521C69.6653 62.7979 70.0401 63.2302 70.3573 63.7201C70.6744 64.2101 70.9627 64.7577 71.1068 65.3629C71.251 65.9681 71.2798 66.6309 71.251 67.1497C71.2221 67.6973 71.1068 68.2737 70.905 68.8212C70.6743 69.3688 70.3861 69.9164 69.9825 70.3775C69.5789 70.8386 69.0887 71.2133 68.5987 71.5015C67.5896 72.0779 66.5518 72.2796 65.5716 72.3949C64.5626 72.5102 63.6112 72.4525 62.7175 72.3661C60.9013 72.1931 59.1715 71.8473 57.4706 71.5015C55.7697 71.1556 54.0976 70.8098 52.512 70.7233C51.0418 70.6081 49.5427 71.098 48.0435 71.8185C47.294 72.1643 46.5444 72.5678 45.7949 73.0001C45.0453 73.4036 44.2669 73.8647 43.4597 74.2393C41.8453 75.0175 40.1732 75.5651 38.5299 76.1414C36.9155 76.7178 35.3299 77.3231 33.8308 78.13C33.629 78.2453 33.3984 78.1588 33.3119 77.9859C33.2254 77.813 33.2542 77.5824 33.4272 77.4672C34.8686 76.4297 36.4831 75.6515 38.0687 74.9598C39.6543 74.2393 41.2399 73.5477 42.6813 72.7407C44.1228 71.9338 45.5354 70.8674 47.121 70.0028C47.9282 69.5705 48.7643 69.1671 49.658 68.85C49.8886 68.7636 50.1192 68.7059 50.3499 68.6483C50.5805 68.5907 50.84 68.533 51.0706 68.5042C51.3301 68.4754 51.5607 68.4178 51.8201 68.4178L52.1949 68.3889H52.5409C54.4148 68.4178 56.1733 68.706 57.8742 68.9653C59.5752 69.2247 61.2761 69.5129 62.8905 69.5994C63.6977 69.657 64.5049 69.657 65.2257 69.5417C65.9464 69.4265 66.6383 69.2535 67.1284 68.9365C67.6473 68.6483 67.9356 68.2448 68.1086 67.7549C68.2815 67.265 68.3104 66.5157 68.1951 66.0834C68.0798 65.6222 67.7338 65.1611 67.2437 64.7288C66.7248 64.2965 66.0905 63.8931 65.3986 63.5472C63.986 62.8267 62.4004 62.2791 60.786 61.7316L55.8562 60.1753C54.1841 59.6277 52.512 59.0801 50.8688 58.4173C49.1967 57.7544 47.5535 57.0051 45.9967 56.0541C44.4111 55.103 42.8831 53.9502 41.6723 52.4228C41.0669 51.6735 40.548 50.8089 40.1732 49.8866C39.7984 48.9644 39.5678 47.9845 39.4813 47.0335C39.3948 46.0824 39.4813 45.1026 39.6254 44.2092C39.7984 43.3157 40.0291 42.4223 40.4038 41.5866C40.548 41.2984 40.8939 41.1543 41.1822 41.2695C41.384 41.4136 41.4993 41.6442 41.4993 41.9036Z" fill="black"/>
</g>
<g id="Group_3">
<path id="Vector_10" d="M129.484 58.2729C128.936 56.976 128.417 55.6503 127.87 54.3534L126.313 50.434C125.304 47.8114 124.237 45.2464 123.055 42.7391C121.873 40.2606 120.547 37.8397 118.875 35.88C118.039 34.9001 117.116 34.0643 116.079 33.5168C115.041 32.9692 113.945 32.7386 112.763 32.8827C111.61 33.0268 110.486 33.4879 109.621 34.2661C108.756 35.0154 108.093 36.0529 107.776 37.2345C107.43 38.3873 107.401 39.713 107.574 40.9523C107.747 42.1915 108.208 43.4019 108.929 44.4106C109.65 45.4193 110.659 46.2839 111.783 46.7738C112.36 47.0044 112.936 47.1485 113.513 47.1485C113.772 47.1485 114.032 47.0909 114.233 46.9756C114.435 46.8603 114.608 46.745 114.695 46.5721C114.81 46.3992 114.868 46.1398 114.897 45.8804C114.897 45.5922 114.897 45.304 114.81 45.0158C114.666 44.4394 114.349 43.8919 113.945 43.3443C113.542 42.7967 113.051 42.3068 112.619 41.7016C112.187 41.1252 111.783 40.4047 111.668 39.6266C111.639 39.4248 111.783 39.2519 111.985 39.2231C112.158 39.1942 112.331 39.3095 112.388 39.4825C112.533 40.0877 112.907 40.6064 113.34 41.1252C113.772 41.6151 114.32 42.1051 114.81 42.6526C115.3 43.2002 115.761 43.863 116.021 44.6412C116.136 45.0447 116.223 45.4481 116.223 45.8516C116.223 46.2839 116.165 46.745 115.934 47.2061C115.733 47.6384 115.329 48.0131 114.925 48.2436C114.493 48.4742 114.06 48.5895 113.628 48.6183C112.763 48.7048 111.956 48.5319 111.206 48.2725C109.707 47.7249 108.439 46.745 107.459 45.5346C106.478 44.3242 105.815 42.8255 105.498 41.2981C105.354 40.52 105.268 39.7706 105.268 38.9925C105.268 38.2144 105.354 37.4074 105.556 36.6293C105.931 35.073 106.767 33.5744 107.978 32.4504C109.188 31.3265 110.774 30.5771 112.388 30.3466C113.196 30.2313 114.032 30.2025 114.897 30.3466C115.733 30.4619 116.54 30.7212 117.289 31.0959C118.039 31.4706 118.702 31.9317 119.336 32.4216C119.942 32.9404 120.489 33.4879 120.979 34.0932C121.988 35.2459 122.767 36.514 123.488 37.8109C124.208 39.1078 124.785 40.4047 125.361 41.7304C127.552 47.062 129.052 52.509 130.464 57.9559C130.551 58.2441 130.378 58.5323 130.089 58.6188C129.859 58.6476 129.599 58.5323 129.484 58.2729Z" fill="black"/>
<path id="Vector_11" d="M92.9867 31.6147C91.7759 31.0671 90.5362 30.7213 89.2678 30.6637C88.0281 30.6349 86.7884 30.8942 85.6641 31.413C84.5109 31.9318 83.4731 32.6811 82.4641 33.5168C81.4551 34.3526 80.4749 35.3037 79.4658 36.2547C78.9469 36.7446 78.428 37.2058 77.8514 37.6957C77.2748 38.1568 76.6694 38.6467 75.891 39.0214C75.4874 39.1943 75.055 39.3672 74.5649 39.4537C74.3054 39.5113 74.0748 39.5113 73.7865 39.5113C73.4982 39.5113 73.2388 39.4825 72.9793 39.4249C71.9703 39.1655 71.1342 38.6467 70.5 37.9551C69.8658 37.2634 69.3757 36.37 69.2315 35.3613C69.1738 35.1307 69.1738 34.8425 69.1738 34.612C69.1738 34.3814 69.2027 34.1797 69.2027 33.9491L69.2892 33.3151L69.4333 32.7099C69.6351 31.9029 69.981 31.1824 70.327 30.4908C70.7018 29.7991 71.1342 29.165 71.5667 28.5887C73.4117 26.2254 75.7469 24.381 78.255 22.9688C79.5235 22.2483 80.8496 21.6719 82.2334 21.182C83.6172 20.7209 85.0298 20.375 86.4713 20.2021C87.9128 20.0292 89.3831 20.0004 90.8245 20.1733C92.266 20.3462 93.6498 20.6344 95.0048 21.0667C96.3597 21.499 97.6859 22.0178 98.9255 22.6806C100.165 23.3435 101.376 24.1792 102.356 25.2168C102.5 25.3897 102.5 25.6202 102.327 25.7643C102.183 25.9084 101.953 25.9084 101.808 25.7643C100.828 24.8997 99.6462 24.2369 98.4354 23.7181C97.1957 23.1994 95.9273 22.7959 94.63 22.5077C93.3327 22.2195 92.0065 22.0178 90.6804 21.9601C89.3831 21.9025 88.0858 22.0178 86.7885 22.2483C84.2227 22.7671 81.7722 23.7181 79.5523 25.1303C77.3613 26.5136 75.3721 28.2716 73.9306 30.3178C73.1811 31.3265 72.6333 32.4217 72.345 33.488L72.2586 33.8915L72.2009 34.2661L72.1721 34.6408C72.1721 34.7273 72.1721 34.8137 72.2009 34.929C72.2585 35.3036 72.4027 35.6783 72.691 35.9953C72.9505 36.3412 73.3541 36.5717 73.6712 36.687C73.9018 36.7735 74.3054 36.7446 74.7667 36.5429C75.228 36.3412 75.7469 36.0241 76.2658 35.6495C76.7847 35.2748 77.3036 34.8425 77.8226 34.4102C78.8604 33.5456 79.9271 32.6234 81.1091 31.7877C82.2623 30.9519 83.5596 30.1738 84.9722 29.6838C86.3848 29.1651 87.9416 28.9345 89.4407 29.1362C90.9398 29.338 92.3236 29.8856 93.5633 30.6349C93.8516 30.8078 93.9381 31.1536 93.7651 31.4418C93.5921 31.6436 93.2462 31.73 92.9867 31.6147Z" fill="black"/>
<path id="Vector_12" d="M104.144 52.0765C105.008 52.2206 105.643 52.6241 106.19 53.1141C106.738 53.604 107.257 54.1804 107.747 54.7568C108.699 55.9384 109.448 57.3794 109.823 58.9357C110.226 60.4631 110.255 62.0482 110.082 63.518C109.881 65.0166 109.477 66.4288 108.9 67.7545C108.814 67.9274 108.612 68.0139 108.41 67.9562C108.266 67.8986 108.18 67.7545 108.18 67.6392C108.18 66.227 108.18 64.8149 108.036 63.4892L107.92 62.5093C107.863 62.1923 107.805 61.8753 107.747 61.5582C107.632 60.9242 107.43 60.319 107.228 59.7426C106.796 58.561 106.162 57.4947 105.47 56.4283C105.124 55.8808 104.749 55.3332 104.345 54.8144C104.144 54.555 103.942 54.2668 103.798 53.9498C103.625 53.6328 103.481 53.287 103.423 52.8547V52.8259C103.365 52.48 103.596 52.1342 103.942 52.0765C104.028 52.0477 104.086 52.0477 104.144 52.0765Z" fill="black"/>
<path id="Vector_13" d="M106.969 44.5839C106.45 45.0739 105.786 45.4485 105.037 45.5926C104.287 45.7367 103.48 45.6215 102.788 45.3621C102.068 45.1027 101.462 44.6704 100.914 44.1805C100.338 43.7194 99.8765 43.143 99.5018 42.5089C98.7522 41.2409 98.3486 39.7711 98.3774 38.3301C98.3774 37.6096 98.4351 36.9179 98.5792 36.2262C98.7234 35.5345 98.8963 34.8717 99.1558 34.2088C99.6459 32.8831 100.338 31.6727 101.289 30.6063C102.212 29.54 103.423 28.6466 104.806 28.1855C106.19 27.7244 107.718 27.7532 109.015 28.2431C110.342 28.7331 111.437 29.54 112.36 30.4622C112.475 30.5775 112.475 30.7505 112.36 30.8657C112.273 30.9522 112.1 30.981 112.014 30.8945C110.976 30.174 109.88 29.5977 108.698 29.3671C107.545 29.1077 106.392 29.223 105.383 29.6841C104.374 30.1452 103.48 30.8945 102.788 31.8168C102.096 32.739 101.577 33.8054 101.203 34.9005C101.03 35.4481 100.886 36.0245 100.799 36.6009C100.713 37.1773 100.655 37.7537 100.655 38.3301C100.684 39.4252 100.886 40.5492 101.347 41.5291C101.577 42.019 101.895 42.4801 102.212 42.9412C102.586 43.3447 102.99 43.7194 103.48 43.9499C103.711 44.094 103.941 44.1805 104.201 44.2381C104.46 44.2958 104.691 44.3246 104.95 44.3534C105.469 44.3534 106.017 44.1805 106.536 43.9211C106.738 43.8058 106.997 43.8923 107.113 44.094C107.141 44.2669 107.113 44.4687 106.969 44.5839Z" fill="black"/>
<path id="Vector_14" d="M99.2427 42.0477C98.5797 42.4512 97.8013 42.5953 96.9941 42.5377C96.7922 42.5088 96.5905 42.48 96.3886 42.4224C96.1868 42.3647 96.0427 42.3071 95.8409 42.2207C95.4949 42.0766 95.149 41.9036 94.8319 41.7019C94.1976 41.2696 93.6499 40.6644 93.2463 40.0015C92.8715 39.3099 92.6409 38.5894 92.5255 37.8401C92.2949 36.3702 92.3814 34.9293 92.6697 33.5171C92.958 32.1049 93.4193 30.7216 94.14 29.4247C94.8607 28.1566 95.8986 26.975 97.2535 26.1969C98.5797 25.4187 100.165 25.0729 101.664 25.1882C103.164 25.3035 104.547 25.7934 105.787 26.4563C107.027 27.1191 108.151 27.9549 109.16 28.8771C109.275 28.9924 109.275 29.1653 109.189 29.2806C109.102 29.367 108.958 29.3959 108.843 29.3382C108.266 28.9924 107.69 28.6754 107.084 28.3872C106.508 28.099 105.902 27.8396 105.297 27.609C104.086 27.1767 102.846 26.8886 101.636 26.9462C100.454 27.0038 99.3004 27.3208 98.3779 28.0125C97.4265 28.6754 96.6481 29.5688 95.985 30.5775C95.322 31.615 94.8319 32.7678 94.5148 33.9782C94.1976 35.1886 94.0535 36.4855 94.1688 37.6671C94.2265 38.2723 94.3706 38.8487 94.6013 39.3387C94.8607 39.8574 95.1778 40.2897 95.6391 40.6356C95.8697 40.8085 96.1292 40.9526 96.3886 41.0967L96.7923 41.2696C96.9076 41.3272 97.0517 41.3561 97.1671 41.3849C97.7148 41.529 98.3202 41.5001 98.8679 41.2696C99.0698 41.1831 99.3292 41.2984 99.4157 41.5002C99.5022 41.7307 99.4445 41.9613 99.2427 42.0477Z" fill="black"/>
<path id="Vector_15" d="M116.482 39.6842C117.203 41.9322 117.52 44.2954 117.722 46.5721C117.953 48.8777 118.097 51.068 118.385 53.2295C118.702 55.391 119.279 57.4948 120.172 59.5122C121.037 61.5584 122.162 63.547 123.315 65.5067C123.401 65.6796 123.372 65.8814 123.199 65.9966C123.055 66.0831 122.882 66.0543 122.767 65.939C121.153 64.2674 119.653 62.4518 118.443 60.4056C118.154 59.8868 117.866 59.3681 117.578 58.8205C117.318 58.2729 117.059 57.7254 116.828 57.1778C116.626 56.6014 116.396 56.0538 116.223 55.4774C116.079 54.901 115.877 54.3246 115.762 53.7194C115.214 51.3562 115.185 48.9642 115.243 46.6586C115.271 45.5058 115.3 44.3818 115.329 43.2291C115.329 42.6527 115.358 42.1051 115.387 41.5287C115.387 40.9523 115.416 40.3759 115.444 39.7995V39.7707C115.473 39.4825 115.733 39.2519 116.021 39.2808C116.223 39.3096 116.396 39.4825 116.482 39.6842Z" fill="black"/>
<path id="Vector_16" d="M111.64 38.6173C112.101 38.8478 112.303 39.0496 112.476 39.2225C112.649 39.3954 112.793 39.4819 112.966 39.5395C113.254 39.626 113.658 39.6836 114.119 39.5395C114.58 39.3954 115.042 39.0784 115.416 38.6461C115.791 38.2138 116.022 37.6374 116.166 36.9169V36.8881C116.195 36.744 116.339 36.6287 116.512 36.6575C116.598 36.6863 116.685 36.744 116.714 36.8305C117.06 37.5509 117.146 38.5308 116.829 39.3954C116.512 40.26 115.878 41.0382 115.013 41.4993C114.58 41.7298 114.061 41.8739 113.542 41.9027C112.995 41.9316 112.418 41.7875 111.928 41.4993C111.438 41.2111 111.063 40.7499 110.833 40.2888C110.602 39.8277 110.573 39.309 110.861 38.8478C111.006 38.5885 111.351 38.502 111.611 38.6461L111.64 38.6173Z" fill="black"/>
<path id="Vector_17" d="M99.3872 41.6156C99.7332 42.4514 99.9926 43.316 100.166 44.2094C100.339 45.1028 100.396 46.0539 100.339 47.0049C100.281 47.956 100.05 48.907 99.7044 49.8292C99.3296 50.7226 98.8395 51.5872 98.2341 52.3366C97.0521 53.864 95.553 55.0168 93.9962 55.9678C92.4394 56.9189 90.825 57.697 89.2106 58.3599C85.9529 59.6568 82.6376 60.6366 79.4375 61.6453C77.8519 62.1641 76.2663 62.7117 74.8537 63.3745C74.133 63.7203 73.4699 64.0662 72.9221 64.4985C72.3456 64.902 71.942 65.3631 71.7113 65.8242C71.596 66.0547 71.5384 66.2853 71.5095 66.5159C71.5095 66.5735 71.5095 66.6312 71.5095 66.7176V66.9482C71.5095 67.1211 71.5384 67.2364 71.5672 67.4093C71.596 67.5534 71.6249 67.6687 71.6537 67.8128C71.7113 67.928 71.7402 68.0721 71.7978 68.1586C71.9131 68.3892 72.0861 68.5621 72.2591 68.735C72.6627 69.0808 73.2393 69.369 73.9023 69.5131C74.5942 69.6572 75.3149 69.7149 76.0933 69.7149C77.6789 69.686 79.3222 69.4267 80.9943 69.1961C82.6664 68.9367 84.3673 68.6485 86.1547 68.5044L86.8466 68.4756H87.5385C88.0286 68.5044 88.5475 68.5621 89.0088 68.6485C89.9601 68.8503 90.825 69.1961 91.661 69.5708C93.3043 70.3489 94.7169 71.3576 96.1295 72.251C97.5133 73.1156 99.0125 73.8649 100.569 74.5566C102.126 75.2482 103.712 75.9687 105.182 76.8621C105.355 76.9774 105.413 77.208 105.297 77.4097C105.182 77.5826 104.98 77.6403 104.807 77.5538C103.279 76.8333 101.694 76.3146 100.079 75.7382C98.4647 75.1618 96.8214 74.5854 95.2647 73.7208C92.2376 72.0781 89.3836 70.2336 86.3565 70.81C84.7421 71.0117 83.0988 71.3576 81.4267 71.7034C79.7546 72.0493 78.0249 72.3663 76.1798 72.4527C75.2573 72.5104 74.2771 72.4816 73.2969 72.2798C72.3167 72.1069 71.25 71.7034 70.3275 70.9541C69.405 70.2048 68.7708 69.052 68.569 67.928C68.5113 67.6398 68.4536 67.3805 68.4536 67.1211L68.4248 66.7176C68.4248 66.5735 68.4248 66.4294 68.4248 66.2853C68.4536 65.6801 68.6266 65.0749 68.8572 64.5273C69.3762 63.4322 70.1834 62.6252 70.9618 62.02C71.769 61.4148 72.605 60.9537 73.4122 60.5502C75.0843 59.772 76.7276 59.1957 78.3708 58.6481C80.0141 58.1005 81.6574 57.6106 83.2718 57.1206C84.8862 56.6307 86.4718 56.1119 88.0286 55.5067C89.5565 54.9303 91.0845 54.2675 92.4394 53.4893C93.8232 52.7112 95.0629 51.7602 96.0431 50.6074C96.5332 50.031 96.9368 49.4258 97.2539 48.7629C97.5998 48.1 97.8305 47.4084 97.9746 46.6879C98.2917 45.2181 98.2629 43.5754 98.1764 41.9038C98.1476 41.5868 98.407 41.2986 98.7242 41.2698C99.0701 41.2409 99.3008 41.385 99.3872 41.6156Z" fill="black"/>
</g>
<path id="Vector_18" d="M139.834 77.9857C140.728 72.3082 137.874 66.2561 134.443 61.472C133.492 60.1175 131.618 57.0914 130.436 59.4258C129.831 60.6362 130.984 62.9706 131.128 64.2387C131.877 70.3485 128.36 75.5648 123.171 78.5044C120.894 79.8013 118.443 80.5795 115.848 81.0118C112.677 81.5593 111.236 80.4642 108.439 78.9656C105.816 77.5822 106.22 80.0031 106.911 81.7322C107.834 83.9514 109.823 85.4788 111.524 87.208C115.82 91.5021 120.346 94.6147 126.429 91.9632C130.551 90.1476 134.76 87.3521 137.441 83.692C138.768 81.8763 139.517 79.9454 139.834 77.9857Z" fill="black"/>
<path id="Vector_19" d="M2.55019 83.6926C5.23129 87.3527 9.44036 90.177 13.5629 91.9639C19.6458 94.6153 24.1432 91.5027 28.4675 87.2086C30.1973 85.4794 32.1576 83.9808 33.0802 81.7329C33.7721 80.0325 34.1757 77.5828 31.5522 78.9662C28.7558 80.4648 27.3144 81.5311 24.1432 81.0124C21.5774 80.5801 19.0981 79.8019 16.8206 78.505C11.6313 75.5654 8.11421 70.3491 8.86376 64.2393C9.00791 62.9712 10.1899 60.6368 9.55567 59.4264C8.37367 57.1208 6.49978 60.1469 5.54842 61.4726C2.11776 66.2567 -0.707474 72.3088 0.157398 77.9863C0.474518 79.946 1.22405 81.877 2.55019 83.6926Z" fill="black"/>
</g>
</g>
</svg>
