<svg width="161" height="109" viewBox="0 0 161 109" fill="none" xmlns="http://www.w3.org/2000/svg">
<g id="Group 1171274405">
<g id="Group 1171274377">
<path id="Vector" d="M108.768 54.2318C110.744 54.0795 112.721 55.5264 114.318 56.7068C119.944 60.8951 124.696 66.9683 128.668 72.7178C132.337 78.0294 136.214 83.322 138.419 89.4332C140.016 93.8691 140.814 99.7899 135.72 101.865C129.771 104.283 124.031 100.19 119.431 96.82C118.538 96.1536 116.846 95.2017 116.96 93.8691C117.055 92.7458 118.48 91.832 119.013 90.8801C119.773 89.5474 119.507 87.6627 119.108 86.2348C118.937 85.6637 118.557 85.3971 118.271 84.9212C117.796 84.1597 117.682 83.2649 117.245 82.4653C116.466 81.0564 115.363 80.7518 113.843 80.2949C110.573 79.324 107.494 78.1055 104.244 77.1156C101.583 76.2969 97.3632 74.4502 94.7212 75.84C93.0866 76.6967 92.2312 78.2198 91.0147 79.5334C89.171 81.5134 87.1752 83.4362 85.1794 85.2639C82.7845 87.4342 85.6546 89.4142 87.8975 87.6627C87.7074 89.7949 89.3421 91.2037 91.8511 89.852C92.7634 89.3571 93.6378 88.5765 94.341 87.8911C95.4815 86.7869 97.0211 83.5314 99.1499 84.3691C100.214 84.7879 100.823 85.9492 101.412 86.8631C102.153 88.0053 102.761 88.5765 103.978 89.1857C104.985 89.6997 106.031 89.2428 107.095 89.5665C108.064 89.8711 108.844 90.347 108.597 91.5083C108.102 93.85 104.548 93.2027 102.894 93.2027C100.024 93.2027 97.1541 93.2027 94.303 93.2027C90.3685 93.2027 86.4149 93.2027 82.4804 93.2027L82.4614 92.1556L70.6768 63.0464C69.8785 61.0665 67.6166 59.4673 65.6588 59.4673L64.9365 58.8961C65.5638 56.821 66.8373 55.0504 68.4149 53.5845C69.1942 52.8611 70.0305 52.1947 70.8859 51.5855C71.7602 50.9763 72.6726 50.2148 73.6799 49.815C74.0601 49.6627 74.5163 49.5865 74.9154 49.5104C75.2386 49.4533 75.6187 49.4152 75.9228 49.5104C76.341 49.6436 76.6451 50.0244 76.9872 50.2719C77.3864 50.5575 77.8426 50.7859 78.2608 51.0525C79.1921 51.6807 80.0665 52.3661 81.0168 52.9563C82.7465 54.0414 84.7233 54.4603 86.7571 54.4412C88.1256 54.4222 89.7222 53.9082 91.0717 54.1557C93.0295 54.5174 92.3643 56.3641 93.1626 57.8871C93.9039 59.2769 95.3674 60.4001 96.698 61.1236C102.97 64.5124 103.389 57.2398 107.038 54.8601C107.589 54.4603 108.178 54.2699 108.768 54.2318Z" fill="#FFE033"/>
<path id="Vector_2" d="M108.388 100.057C105.347 100.247 102.325 100.361 99.2836 100.438C96.2424 100.514 93.2203 100.571 90.1791 100.59C87.1379 100.628 84.1157 100.571 81.0745 100.495L78.7936 100.419C78.0334 100.381 77.2731 100.361 76.5128 100.304C74.9922 100.228 73.4716 100.114 71.951 99.9617C71.7799 99.9426 71.6469 99.7713 71.6659 99.5999C71.6849 99.4476 71.7989 99.3334 71.951 99.3144C73.4716 99.143 74.9922 99.0478 76.5128 98.9717C77.2731 98.9336 78.0334 98.8955 78.7936 98.8574L81.0745 98.7813C84.1157 98.7242 87.1379 98.6671 90.1791 98.6861C93.2203 98.7051 96.2424 98.7623 99.2836 98.8384C102.325 98.9146 105.347 99.0478 108.388 99.2192C108.597 99.2382 108.768 99.4096 108.749 99.638C108.73 99.8855 108.578 100.038 108.388 100.057Z" fill="black"/>
<path id="Vector_3" d="M107.97 93.6034C105.841 93.7938 103.712 93.908 101.583 93.9841C99.4543 94.0793 97.3254 94.1174 95.1966 94.1555C93.0678 94.1936 90.939 94.1365 88.8101 94.0603C87.7457 94.0222 86.6813 93.9651 85.6169 93.889C84.5525 93.8128 83.4881 93.6986 82.4236 93.5463C82.2526 93.5272 82.1195 93.3559 82.1385 93.1655C82.1575 93.0132 82.2716 92.918 82.4236 92.8799C83.4881 92.7086 84.5525 92.6134 85.6169 92.5373C86.6813 92.4611 87.7457 92.404 88.8101 92.3659C90.939 92.2898 93.0678 92.2517 95.1966 92.2707C97.3254 92.3088 99.4543 92.3469 101.583 92.4421C103.712 92.5373 105.841 92.6324 107.97 92.8228C108.179 92.8419 108.331 93.0322 108.312 93.2417C108.312 93.432 108.16 93.5843 107.97 93.6034Z" fill="black"/>
<path id="Vector_4" d="M13.8059 58.9725C17.4934 58.8964 30.3614 58.7631 34.0488 58.706L45.1302 58.5918L50.6613 58.5346L56.1925 58.4966L61.7236 58.4585L64.4987 58.4395H65.183H65.5251H65.6202H65.7342C65.8102 58.4395 65.8863 58.4395 65.9623 58.4395C66.5515 58.4775 67.0837 58.6108 67.5969 58.8012C68.6233 59.1819 69.5167 59.8102 70.258 60.5717C70.6381 60.9525 70.9612 61.3904 71.2464 61.8663C71.3794 62.1138 71.5125 62.3613 71.6265 62.6088L71.8926 63.2561L73.9834 68.3964L78.1651 78.6579L86.5093 99.219C86.7374 99.7901 86.4713 100.437 85.9011 100.666C85.768 100.723 85.616 100.742 85.4829 100.742L64.6698 100.704L43.8567 100.628L33.4406 100.552L30.8366 100.533H29.5441H29.373H29.1829C29.0499 100.533 28.9358 100.533 28.8028 100.514C28.5557 100.495 28.2896 100.437 28.0425 100.38C27.0541 100.133 26.1227 99.6188 25.4004 98.9144C25.0393 98.5717 24.7162 98.1529 24.4501 97.734C24.374 97.6198 24.336 97.5056 24.26 97.4104C24.203 97.2961 24.1459 97.1819 24.0889 97.0677L24.0129 96.8963L23.9559 96.744L23.8418 96.4394L20.0593 86.73C18.8239 83.4935 12.2663 66.9304 11.0308 63.6749C10.9358 63.4084 11.0688 63.1228 11.3159 63.0276C11.563 62.9324 11.8481 63.0467 11.9622 63.2942C13.3497 66.4926 19.9643 83.0176 21.3328 86.216L25.3624 95.8112L25.4955 96.1158L25.5525 96.2681L25.6095 96.3823C25.6475 96.4585 25.6856 96.5537 25.7236 96.6298C25.7616 96.706 25.7996 96.7821 25.8566 96.8583C26.0467 97.1629 26.2748 97.4484 26.5409 97.6769C27.0731 98.1528 27.7193 98.4955 28.4226 98.6669C28.5937 98.705 28.7648 98.743 28.9548 98.743C29.0499 98.7621 29.1259 98.7621 29.2209 98.7621H29.354H29.506H30.7985L33.4026 98.743L43.8186 98.6669L64.6318 98.5907L85.4449 98.5526L84.4185 100.095L76.1123 79.5336L71.9877 69.234L69.9158 64.0938L69.6497 63.4465C69.5737 63.2751 69.4977 63.1228 69.4026 62.9515C69.2126 62.6278 68.9845 62.3232 68.7184 62.0376C68.1862 61.4855 67.5209 61.0096 66.8176 60.7431C66.4755 60.6098 66.1143 60.5146 65.7722 60.4956C65.7342 60.4956 65.6962 60.4956 65.6392 60.4956H65.5821H65.4871H65.145H64.4607L61.6856 60.4765L56.1545 60.4384L50.6233 60.4004L45.0921 60.3433L34.0108 60.229C30.3234 60.1719 17.4553 60.21 13.7679 60.1338C13.4448 60.1338 13.1977 59.8673 13.1977 59.5437C13.2547 59.2391 13.5018 58.9725 13.8059 58.9725Z" fill="black"/>
<path id="Vector_5" d="M43.1915 77.592C43.4957 77.2113 43.9138 76.9447 44.37 76.7924C44.8262 76.6401 45.2824 76.6021 45.7385 76.6021C46.1947 76.6211 46.6319 76.7163 47.069 76.8495C47.5062 76.9828 47.9244 77.1732 48.3045 77.4207C48.7037 77.6682 49.0648 77.9728 49.3879 78.3726C49.6921 78.7724 49.9582 79.2483 50.0722 79.8004C50.1292 80.067 50.1292 80.3525 50.1102 80.6572C50.0912 80.7904 50.0722 80.9427 50.0342 81.076C49.9962 81.2093 49.9582 81.3425 49.9011 81.4568C49.6921 81.9517 49.4069 82.3706 49.0648 82.7323C48.7227 83.094 48.3235 83.3986 47.8674 83.6271C47.6393 83.7413 47.3922 83.8365 47.1261 83.9127C46.993 83.9507 46.86 83.9698 46.7079 83.9888C46.5558 83.9888 46.4038 84.0079 46.2707 84.0079C45.7195 83.9888 45.2253 83.8365 44.7691 83.6081C44.313 83.3796 43.9328 83.075 43.5907 82.7513C43.2676 82.4087 42.9825 82.0279 42.7544 81.59C42.6973 81.4948 42.6593 81.3806 42.6023 81.2664C42.5643 81.1521 42.5073 81.057 42.4883 80.9237C42.4502 80.8095 42.4122 80.6952 42.3932 80.581L42.3362 80.2193C42.2792 79.7433 42.2982 79.2483 42.4503 78.7914C42.4883 78.6772 42.5453 78.563 42.5833 78.4487C42.6403 78.3345 42.6783 78.2393 42.7544 78.1251C42.8874 77.9157 43.0585 77.7443 43.2486 77.6111L43.1915 77.592ZM43.7047 78.068C43.6287 78.2203 43.5717 78.3726 43.5337 78.5249L43.5147 78.6391L43.4957 78.7533C43.4957 78.8295 43.4766 78.9057 43.4766 79.0008V79.2293C43.4766 79.3055 43.4957 79.3816 43.5147 79.4578C43.5147 79.5339 43.5527 79.6101 43.5717 79.6862C43.5907 79.7624 43.6097 79.8385 43.6477 79.9147C43.8568 80.5239 44.275 81.057 44.7501 81.4758C44.9972 81.6662 45.2633 81.8375 45.5294 81.9517C45.5865 81.9898 45.6625 81.9898 45.7385 82.0279L45.8336 82.066L45.9286 82.085C46.0046 82.085 46.0617 82.1231 46.1187 82.1231C46.1757 82.1231 46.2517 82.1231 46.3087 82.1231C46.7269 82.1231 47.2971 81.8375 47.7153 81.4187C47.9244 81.2093 48.1145 80.9618 48.2285 80.7333C48.2665 80.6762 48.2665 80.6191 48.3045 80.562C48.3235 80.5049 48.3235 80.4477 48.3425 80.3906C48.3615 80.2954 48.3615 80.1812 48.3425 80.067C48.3045 79.591 47.9434 79.058 47.4302 78.6391C46.917 78.2203 46.2707 77.8966 45.6055 77.7634C44.9402 77.6301 44.2369 77.6872 43.7428 78.1061L43.7047 78.068Z" fill="black"/>
<path id="Vector_6" d="M80.4659 20.7063C80.4279 21.9057 80.2188 23.086 79.9337 24.2093C79.8007 24.7804 79.6486 25.3325 79.4775 25.9037L79.0023 27.56C78.6982 28.6452 78.3751 29.7303 78.223 30.7965C78.128 31.3295 78.071 31.8436 78.071 32.3576C78.071 32.6241 78.071 32.8526 78.09 33.1001C78.109 33.3476 78.147 33.576 78.204 33.8235C78.4131 34.7754 78.8503 35.6702 79.4585 36.4508C80.0668 37.2313 80.8461 37.9357 81.7204 38.4117C82.1576 38.6401 82.6138 38.8305 83.0129 38.9067C83.07 38.9257 83.108 38.9257 83.165 38.9257C83.203 38.9257 83.279 38.9257 83.3551 38.9447C83.4881 38.9447 83.6022 38.9447 83.7352 38.9447C83.9823 38.9447 84.2484 38.9257 84.4955 38.8876C84.9897 38.8115 85.5029 38.6782 85.9781 38.4878C86.4533 38.2975 86.9285 38.0119 87.3656 37.7073C87.5367 37.593 87.7648 37.6311 87.8789 37.8025C87.9739 37.9357 87.9739 38.1071 87.8789 38.2403C87.5177 38.7353 87.0615 39.1732 86.5483 39.5349C86.0161 39.8967 85.4459 40.1822 84.8187 40.3536C84.5145 40.4488 84.1914 40.5249 83.8683 40.563C83.7162 40.582 83.5451 40.6011 83.3931 40.6201C83.3171 40.6201 83.241 40.6391 83.146 40.6391C83.0509 40.6391 82.9559 40.6391 82.8609 40.6391C82.1196 40.6011 81.4923 40.3916 80.8841 40.1251C79.7056 39.573 78.6792 38.7734 77.8429 37.7834C77.4247 37.2884 77.0636 36.7363 76.7785 36.1462C76.4933 35.556 76.2843 34.9277 76.1512 34.2614C76.0942 33.9377 76.0372 33.6141 76.0182 33.2714C75.9992 32.9478 75.9992 32.6051 76.0182 32.3005C76.0562 31.6722 76.1512 31.044 76.2843 30.4538C76.5504 29.2544 76.9305 28.1311 77.3487 27.046C78.185 24.8756 79.1164 22.8195 79.5916 20.6492C79.6486 20.4207 79.8767 20.2684 80.1048 20.3255C80.3329 20.3255 80.4659 20.5159 80.4659 20.7063Z" fill="black"/>
<path id="Vector_7" d="M83.1646 40.1635C83.0886 41.1915 82.8035 42.2386 82.3473 43.2096C82.2333 43.438 82.1192 43.6855 81.9862 43.914C81.8531 44.1424 81.7201 44.3709 81.568 44.5803C81.2639 45.0182 80.9408 45.437 80.5796 45.8178C79.1541 47.3979 77.4624 48.5783 75.7898 49.6635C74.1171 50.7486 72.4064 51.7005 70.8098 52.7667C70.0115 53.2997 69.2512 53.8519 68.5099 54.4611C67.7876 55.0703 67.0843 55.7176 66.4191 56.422C66.286 56.5743 66.0389 56.5743 65.8869 56.441C65.7728 56.3268 65.7348 56.1745 65.7918 56.0222C66.172 55.0513 66.7612 54.1755 67.4265 53.3759C68.0917 52.5763 68.852 51.8719 69.6693 51.2246C71.266 49.949 72.9767 48.8829 74.6493 47.8739C75.4856 47.3599 76.3029 46.8649 77.1012 46.3128C77.8996 45.7797 78.6409 45.2086 79.3251 44.5803C79.6673 44.2757 79.9904 43.933 80.2945 43.5903C80.4466 43.419 80.5796 43.2286 80.7317 43.0573C80.8647 42.8669 80.9978 42.6765 81.1308 42.5052C81.644 41.7436 82.0242 40.8869 82.3093 39.9731C82.3853 39.7446 82.6324 39.6114 82.8605 39.6875C83.0506 39.7637 83.1646 39.9541 83.1646 40.1635Z" fill="black"/>
<path id="Vector_8" d="M116.198 93.9262C115.533 93.4313 114.868 92.9553 114.145 92.5555C113.442 92.1557 112.701 91.794 111.96 91.5274C111.218 91.2419 110.439 91.0325 109.66 90.8992C109.47 90.8611 109.279 90.8421 109.07 90.804L108.785 90.7659L108.5 90.7469L108.215 90.7278L107.911 90.7088L107.303 90.6707C106.885 90.6517 106.466 90.6327 106.01 90.6136C105.554 90.5755 105.079 90.5375 104.585 90.4042C104.09 90.29 103.596 90.0806 103.159 89.814C102.722 89.5475 102.342 89.2619 101.981 88.9383C101.6 88.5956 101.315 88.2529 101.03 87.9293C100.745 87.6056 100.479 87.282 100.213 86.9964C99.6807 86.4252 99.1295 85.9303 98.6163 85.797C98.4833 85.7589 98.3692 85.7399 98.2552 85.7399C98.1601 85.7399 98.0461 85.7399 97.913 85.7779C97.6469 85.8541 97.3618 86.0064 97.0577 86.2158C96.4685 86.6347 95.8792 87.2248 95.309 87.8341C95.0239 88.1387 94.7198 88.4433 94.3966 88.7669C94.2256 88.9192 94.0735 89.0715 93.8835 89.2429L93.3893 89.6427C93.0471 89.9092 92.705 90.1948 92.3249 90.4423C91.9447 90.6898 91.5455 90.9373 91.0323 91.1086C90.8993 91.1467 90.7472 91.1848 90.5952 91.2038C90.4241 91.2228 90.234 91.2228 90.0249 91.1467C89.8159 91.0896 89.6068 90.9563 89.4547 90.785C89.3027 90.6136 89.2076 90.3661 89.1696 90.1567C89.1316 89.7379 89.2456 89.4713 89.3407 89.2238C89.4547 88.9763 89.5688 88.7669 89.7018 88.5765C89.9489 88.1767 90.234 87.8341 90.5192 87.5104C90.8043 87.1868 91.1084 86.8631 91.3555 86.5585C92.4389 85.2449 93.5413 83.9503 94.5297 82.6176C94.6438 82.4463 94.8718 82.4273 95.0429 82.5415C95.195 82.6557 95.233 82.8842 95.1379 83.0365C94.2066 84.4643 93.1802 85.8351 92.1918 87.2058C91.9257 87.5866 91.6596 87.8912 91.4125 88.2148C91.1654 88.5385 90.9373 88.8621 90.7472 89.2048C90.6522 89.3761 90.5762 89.5284 90.5192 89.6808C90.4621 89.8331 90.4431 89.9663 90.4621 89.9854C90.4621 89.9854 90.4621 89.9473 90.4431 89.9282C90.4431 89.9282 90.4241 89.9092 90.4051 89.8902C90.3861 89.8902 90.5001 89.8902 90.6332 89.8331C90.8993 89.7188 91.2414 89.5094 91.5455 89.281C91.8497 89.0525 92.1538 88.786 92.4579 88.5004L92.9331 88.0816C93.0661 87.9673 93.1992 87.815 93.3322 87.6818C93.5983 87.3962 93.8645 87.0725 94.1496 86.7489C94.7008 86.1016 95.29 85.4353 96.0313 84.826C96.4115 84.5214 96.8296 84.2359 97.3808 84.0455C97.6469 83.9503 97.97 83.8741 98.2932 83.8741C98.5973 83.8741 98.9014 83.9122 99.1865 83.9884C99.7568 84.1407 100.232 84.4262 100.631 84.7309C101.03 85.0355 101.372 85.3782 101.676 85.7018C101.981 86.0254 102.266 86.3681 102.551 86.6727C102.817 86.9773 103.083 87.282 103.349 87.5104C103.634 87.7579 103.919 87.9673 104.204 88.1387C104.49 88.31 104.794 88.4242 105.117 88.5004C105.763 88.6527 106.58 88.6717 107.455 88.7098L107.778 88.7288L108.12 88.7669L108.462 88.805L108.804 88.8621L109.146 88.9192L109.47 88.9954C109.698 89.0525 109.907 89.0906 110.135 89.1667C111.009 89.4142 111.845 89.7379 112.644 90.1377C113.442 90.5375 114.183 91.0134 114.887 91.5465C115.59 92.0795 116.236 92.6697 116.844 93.298C117.015 93.4693 116.996 93.7549 116.825 93.9072C116.597 94.0595 116.369 94.0595 116.198 93.9262Z" fill="black"/>
<path id="Vector_9" d="M86.6239 88.9769C86.909 88.1393 87.3271 87.3968 87.7643 86.6543C88.2015 85.9309 88.6576 85.2264 89.1328 84.5411C89.589 83.8557 90.1022 83.2274 90.6154 82.5801C90.7485 82.4278 90.8625 82.2565 90.9956 82.1042C91.1286 81.9519 91.2617 81.7996 91.3947 81.6473C91.5278 81.495 91.6608 81.3427 91.8129 81.1904C91.965 81.0381 92.117 80.8858 92.2881 80.7525L92.3071 80.7335C92.4782 80.6002 92.7253 80.6192 92.8583 80.7906C92.9153 80.8667 92.9533 80.9619 92.9533 81.0571C92.9533 81.2856 92.9153 81.514 92.8773 81.7425C92.8393 81.9709 92.7823 82.1803 92.7063 82.3898C92.6302 82.5992 92.5542 82.8086 92.4782 83.018C92.3831 83.2274 92.3071 83.4178 92.193 83.6082C91.7939 84.3888 91.3377 85.1122 90.8055 85.7785C90.2733 86.4449 89.7221 87.0731 89.1518 87.6824C88.5626 88.2916 87.9924 88.8818 87.3461 89.4529C87.1561 89.6242 86.871 89.6052 86.7189 89.4148C86.6048 89.3006 86.5668 89.1293 86.6239 88.9769Z" fill="black"/>
<path id="Vector_10" d="M83.7546 85.8924C85.0471 84.6549 86.1496 83.208 87.271 81.7611C87.8222 81.0377 88.3925 80.2952 89.0007 79.5718C89.6089 78.8483 90.2552 78.1439 90.9965 77.4966C91.7378 76.8493 92.5741 76.2591 93.5055 75.8403C93.9806 75.6309 94.4748 75.4595 94.969 75.3263C95.4822 75.2121 95.9954 75.1169 96.5086 75.1169C96.7747 75.0978 97.0218 75.1169 97.2689 75.1169C97.516 75.1359 97.7821 75.1359 98.0292 75.1549L98.7705 75.2501L99.1316 75.3072L99.4928 75.3834L100.196 75.5357C100.443 75.5738 100.652 75.6499 100.899 75.707L101.584 75.8974L102.268 76.1068C105.86 77.2301 109.187 78.7531 112.646 79.6479C114.376 80.1048 116.105 80.4094 117.873 80.4666C119.622 80.5046 121.389 80.2571 123.081 79.686C123.271 79.6289 123.48 79.7241 123.556 79.9145C123.613 80.0858 123.537 80.2571 123.385 80.3523C121.75 81.3042 119.831 81.8563 117.911 81.9896C117.436 82.0277 116.942 82.0277 116.466 82.0277C115.991 82.0467 115.516 81.9896 115.022 81.9515C114.547 81.9134 114.071 81.8373 113.596 81.7611C113.368 81.7231 113.121 81.704 112.893 81.6469L112.19 81.4946C110.346 81.0758 108.54 80.5427 106.792 79.9335C105.917 79.6289 105.043 79.3052 104.188 79.0006C103.75 78.8483 103.332 78.677 102.895 78.5437C102.477 78.3914 102.04 78.2391 101.622 78.1058L100.975 77.8964L100.329 77.706C100.12 77.6489 99.911 77.5728 99.6829 77.5347L99.0556 77.3824L98.7325 77.3062L98.4094 77.2491L97.7821 77.1539C97.573 77.1349 97.364 77.1159 97.1549 77.0968C96.9458 77.0778 96.7367 77.0587 96.5466 77.0778C96.1475 77.0778 95.7483 77.1349 95.3492 77.192C94.95 77.2682 94.5699 77.3824 94.2087 77.5347C93.4674 77.8393 92.7452 78.2772 92.0799 78.8102C89.3618 80.9615 87.328 84.2551 84.2869 86.5397C84.0968 86.692 83.8307 86.6349 83.6786 86.4445C83.5646 86.2922 83.6026 86.0447 83.7546 85.8924Z" fill="black"/>
<path id="Vector_11" d="M76.189 49.0915C77.3485 49.9482 78.5269 50.7668 79.7434 51.4331C80.3516 51.7568 80.9599 52.0804 81.6061 52.3279L81.8342 52.4231L82.0813 52.5183C82.2334 52.5754 82.4044 52.6325 82.5565 52.6897C82.8796 52.7848 83.2028 52.8991 83.5259 52.9943C83.849 53.0895 84.1721 53.1656 84.5143 53.2418C84.8374 53.2989 85.1795 53.375 85.5027 53.4321C85.8258 53.4892 86.1679 53.5273 86.51 53.5654C86.8522 53.5844 87.1943 53.6225 87.5174 53.6225C88.2017 53.6416 88.886 53.6225 89.5892 53.6035C90.2925 53.5654 90.9958 53.4893 91.7371 53.4512C91.9462 53.4321 92.1172 53.5844 92.1362 53.7939C92.1553 53.9462 92.0792 54.0604 91.9652 54.1365C91.3189 54.5554 90.6156 54.86 89.8744 55.0884C89.1331 55.3169 88.3728 55.4692 87.5935 55.5263C87.1943 55.5644 86.8142 55.5644 86.415 55.5644C86.0158 55.5454 85.6357 55.5454 85.2365 55.4882C84.8374 55.4502 84.4572 55.374 84.0771 55.2979C83.6969 55.2027 83.3168 55.1265 82.9367 54.9933C81.4351 54.5173 80.0475 53.7748 78.812 52.861C77.5765 51.9472 76.4931 50.881 75.5808 49.6626C75.4287 49.4722 75.4667 49.1866 75.6758 49.0534C75.8279 48.9582 76.037 48.9772 76.189 49.0915Z" fill="black"/>
<path id="Vector_12" d="M82.0814 31.8626C82.4425 32.2434 82.8037 32.567 83.1458 32.7003C83.3169 32.7764 83.4879 32.8145 83.678 32.8335C83.773 32.8526 83.8681 32.8335 83.9631 32.8335C84.0772 32.8335 84.1722 32.8335 84.2672 32.8145C84.4573 32.7955 84.6284 32.7764 84.7994 32.7383C84.9705 32.7003 85.1416 32.6432 85.3317 32.567C85.7308 32.3957 86.149 32.0911 86.6242 31.7864H86.6432C86.8333 31.6722 87.0613 31.7293 87.1754 31.9007C87.2324 31.9959 87.2514 32.1101 87.2134 32.2053C87.0614 32.7955 86.7762 33.3476 86.282 33.8426C86.0349 34.0901 85.7308 34.2995 85.3887 34.4518C85.0466 34.6041 84.6664 34.6612 84.3052 34.6612C84.2102 34.6612 84.1342 34.6612 84.0391 34.6422L83.7921 34.6041C83.621 34.566 83.4499 34.5279 83.2598 34.4708C82.9177 34.3566 82.5756 34.1662 82.2904 33.9377C82.0243 33.6903 81.7962 33.4237 81.6442 33.1381C81.4921 32.8526 81.3781 32.567 81.3021 32.2624C81.245 32.0149 81.3971 31.7864 81.6252 31.7293C81.7963 31.6722 81.9673 31.7293 82.0814 31.8626Z" fill="black"/>
<path id="Vector_13" d="M107.837 46.6934C109.414 47.7214 110.973 48.7685 112.531 49.8156C114.09 50.8817 115.649 51.9479 117.169 53.0901C120.21 55.3557 123.157 57.7545 125.97 60.3246C127.376 61.6192 128.745 62.9519 130.075 64.3226C131.406 65.6933 132.679 67.1402 133.896 68.6252C135.112 70.1102 136.272 71.6713 137.355 73.2895C138.419 74.9078 139.408 76.6022 140.263 78.3917C141.1 80.1813 141.822 82.047 142.297 84.008C142.411 84.5029 142.506 84.9979 142.62 85.4929C142.696 85.9879 142.772 86.5019 142.848 86.9969C142.905 87.4919 142.943 88.006 142.981 88.52C143 89.034 143 89.548 143 90.043C142.981 90.5571 142.943 91.0711 142.924 91.5661C142.867 92.0801 142.81 92.5751 142.734 93.0891C142.639 93.5841 142.525 94.0981 142.43 94.5931C142.373 94.8406 142.297 95.0881 142.24 95.3356C142.164 95.5831 142.088 95.8306 142.012 96.0781C141.689 97.0681 141.271 98.039 140.738 98.9719C140.187 99.9047 139.503 100.761 138.667 101.504C137.83 102.246 136.842 102.818 135.815 103.198C134.789 103.579 133.725 103.789 132.66 103.808C131.596 103.846 130.569 103.731 129.581 103.522C128.593 103.313 127.623 103.008 126.711 102.627C124.867 101.866 123.195 100.857 121.636 99.6953C120.096 98.534 118.652 97.2204 117.454 95.6973C117.283 95.4689 117.321 95.1452 117.53 94.9739C117.739 94.8025 118.024 94.8216 118.215 95.012C119.526 96.2875 120.99 97.4108 122.529 98.3627C123.309 98.8386 124.107 99.2765 124.924 99.6573C125.742 100.038 126.578 100.381 127.414 100.647C129.106 101.18 130.855 101.466 132.489 101.275C133.306 101.199 134.086 100.99 134.808 100.666C135.53 100.343 136.158 99.9238 136.709 99.3717C137.241 98.8196 137.697 98.1723 138.077 97.4679C138.438 96.7444 138.743 95.9639 138.952 95.1452C139.009 94.9358 139.047 94.7264 139.104 94.536C139.142 94.3266 139.199 94.1172 139.237 93.9078C139.294 93.4889 139.37 93.051 139.427 92.6322C139.446 92.1943 139.503 91.7755 139.522 91.3376C139.522 90.8997 139.541 90.4809 139.541 90.043C139.446 86.5971 138.476 83.1703 137.013 79.9148C136.291 78.2775 135.435 76.6973 134.485 75.1362C133.535 73.5941 132.508 72.0711 131.406 70.6052C129.201 67.6733 126.749 64.8937 124.126 62.2665C121.522 59.6202 118.785 57.0881 115.915 54.7084C114.489 53.509 113.045 52.3286 111.562 51.1673L107.133 47.7024C106.867 47.493 106.829 47.1122 107.019 46.8457C107.228 46.5791 107.57 46.522 107.837 46.6934Z" fill="black"/>
<path id="Vector_14" d="M108.292 44.6748C107.836 41.9523 107.057 39.287 106.125 36.8501C103.559 30.0345 100.29 23.4854 95.4813 17.9644C92.193 14.1758 88.8097 12.8431 83.8678 13.0145C79.42 13.1668 74.9723 16.4032 74.9723 21.4674C74.9723 21.6577 74.9723 21.8481 74.9723 22.0385C74.9723 26.4553 68.2246 33.4994 68.2246 42.6948C68.2246 44.2559 68.4527 45.8361 68.9659 47.302C69.194 47.9493 69.8212 50.3862 70.2964 50.7669C70.5245 50.9573 70.7906 51.0335 71.0757 51.0335C72.2162 51.0335 73.6797 49.777 74.421 49.1868C76.2648 47.7209 84.0958 43.4563 82.3852 40.2199C81.7009 38.9253 79.458 38.4684 78.5266 37.0976C77.2151 35.1367 76.6829 32.6618 76.854 30.3391C76.9871 28.4734 77.2531 26.9503 78.5076 26.1317C78.9638 26.1317 79.42 26.1127 79.8762 26.0555C80.3514 25.9984 80.8456 25.8842 81.3018 25.7129C82.2521 25.3892 83.1074 24.8561 83.8487 24.2469C84.609 23.6377 85.2553 22.9714 85.9396 22.4193C86.3957 22.0575 86.8519 21.7529 87.3651 21.5245C87.6312 23.3521 88.1064 25.1417 88.6576 26.8551C89.2849 28.8541 89.9501 30.796 90.4063 32.7569C90.6344 33.7469 90.8055 34.7179 90.9195 35.7078C91.0336 36.6978 91.0526 37.6878 91.0336 38.6968C90.9955 40.7339 90.8625 42.809 90.7675 44.9032C90.7294 45.9503 90.6724 46.9974 90.6724 48.0445C90.6534 49.0916 90.6724 50.1768 90.7294 51.2429C90.8625 53.3752 91.1666 55.5265 91.8509 57.6397C92.212 58.6868 92.6682 59.7339 93.3335 60.6858C93.9987 61.6377 94.8731 62.5325 95.9755 63.1036C96.5267 63.3892 97.0969 63.5986 97.7052 63.7319C98.0093 63.789 98.2944 63.8461 98.6175 63.8651L98.8456 63.8842H99.0737C99.2258 63.8842 99.3778 63.8842 99.5299 63.8651C100.765 63.789 101.925 63.3511 102.913 62.7419C103.407 62.4373 103.883 62.0756 104.32 61.6948C104.738 61.295 105.156 60.8952 105.498 60.4383C106.202 59.5435 106.772 58.5535 107.209 57.5255C108.92 53.5275 109.034 49.0345 108.292 44.6748Z" fill="black"/>
<path id="Vector_15" d="M70.7536 51.4335C69.29 49.7391 68.2255 47.6259 67.7694 45.3794C67.5413 44.2561 67.4462 43.1139 67.4653 41.9716C67.4843 40.8293 67.5983 39.706 67.7884 38.5828C68.1875 36.3553 68.9098 34.204 69.7842 32.167C70.6585 30.1299 71.6849 28.169 72.5973 26.2461C73.0534 25.2752 73.4716 24.3233 73.7187 23.3904C73.8518 22.9335 73.9278 22.4766 73.9278 22.0578V21.658V21.4485V21.2201C73.9278 21.0678 73.9468 20.9155 73.9468 20.7632C73.9658 20.6109 73.9658 20.4586 74.0038 20.3063C74.0799 19.697 74.2319 19.0878 74.46 18.4976C74.6881 17.9075 74.9922 17.3554 75.3533 16.8413C76.0756 15.8133 77.045 15.0137 78.0904 14.4235C79.1548 13.8333 80.2953 13.4716 81.4357 13.2622C82.5952 13.0718 83.7737 13.0337 84.9141 13.186C86.0736 13.3383 87.195 13.6429 88.2404 14.176C89.2668 14.7091 90.2172 15.4325 90.9205 16.3463C91.0345 16.5177 91.0155 16.7461 90.8444 16.8604C90.6924 16.9746 90.5023 16.9556 90.3692 16.8413C89.6089 16.1369 88.7156 15.6229 87.7652 15.2802C87.29 15.1089 86.7958 14.9756 86.3016 14.8804C85.8074 14.7852 85.2942 14.7281 84.781 14.7091C83.7736 14.671 82.7473 14.7662 81.7779 14.9946C80.8085 15.2231 79.8581 15.5848 79.0408 16.0988C78.2045 16.5938 77.5012 17.2602 76.988 18.0217C76.4748 18.7832 76.1517 19.678 76.0376 20.6109C76.0186 20.7251 76.0186 20.8393 75.9996 20.9536C75.9806 21.0678 75.9806 21.182 75.9806 21.3153V21.4866V21.696V22.1149C75.9806 22.8002 75.8666 23.4095 75.7145 23.9996C75.3914 25.161 74.9162 26.2081 74.441 27.198C73.9658 28.2071 73.4526 29.159 72.9584 30.1299C72.4642 31.1008 71.989 32.0527 71.5519 33.0237C70.6585 34.9656 69.9172 36.9455 69.461 38.9826C69.0239 41.0197 68.8338 43.1329 69.0999 45.189C69.1759 45.703 69.271 46.2171 69.404 46.7121C69.5371 47.207 69.6891 47.702 69.8792 48.197C70.2593 49.168 70.7916 50.0818 71.3808 50.9575C71.5138 51.1479 71.4758 51.4335 71.2667 51.5668C71.1527 51.6239 70.9056 51.6048 70.7536 51.4335Z" fill="black"/>
<path id="Vector_16" d="M78.4135 69.8056C78.3945 69.8627 78.3565 69.9198 78.3184 69.9769L78.4135 69.4248C78.8316 69.9007 79.2498 70.3196 79.687 70.6052C80.1242 70.9098 80.5803 71.1192 81.1316 71.3096C81.6638 71.4999 82.272 71.7284 82.8802 71.9759C83.1843 72.1092 83.4885 72.2615 83.7926 72.4518C84.0967 72.6422 84.3818 72.8707 84.6289 73.1562C84.781 73.3276 84.762 73.5941 84.5909 73.7464C84.5339 73.8035 84.4578 73.8226 84.4008 73.8416H84.3628C84.1727 73.8797 84.0017 73.8797 83.8306 73.8797C83.6595 73.8797 83.4885 73.8797 83.3364 73.8797C83.0133 73.8607 82.6902 73.8416 82.348 73.7845C81.7018 73.6703 81.0175 73.556 80.3332 73.2514C79.649 72.9468 78.9647 72.4899 78.4515 71.8617C77.9383 71.2524 77.6342 70.51 77.5201 69.7865L77.4821 69.52C77.4631 69.4058 77.5201 69.2915 77.6342 69.2344C77.6912 69.1963 77.7482 69.1773 77.8053 69.1392C78.0333 69.025 78.2994 69.1202 78.4135 69.3486C78.4895 69.539 78.4705 69.6913 78.4135 69.8056Z" fill="black"/>
<path id="Vector_17" d="M88.9629 68.5673C89.7042 69.0623 90.4075 69.5573 91.1297 69.9571C91.852 70.3568 92.5553 70.6995 93.3156 70.928C94.0569 71.1564 94.8171 71.3659 95.6345 71.5182C95.8435 71.5562 96.0336 71.5943 96.2427 71.6324L96.8699 71.7466C97.2881 71.8228 97.7253 71.918 98.1814 72.0703C98.3905 72.1274 98.5046 72.3558 98.4286 72.5653C98.3905 72.6604 98.3145 72.7556 98.2385 72.7937C97.3641 73.2316 96.4328 73.4029 95.4634 73.422C94.513 73.441 93.5056 73.2887 92.5743 72.9079C91.6429 72.5462 90.8066 71.9941 90.0843 71.3659C89.3621 70.7186 88.7728 69.9761 88.3166 69.1575C88.2026 68.948 88.2786 68.6625 88.4877 68.5482C88.6398 68.4721 88.8108 68.4911 88.9629 68.5673Z" fill="black"/>
<path id="Vector_18" d="M110.801 56.3459C110.858 58.3259 110.877 60.3058 110.915 62.2858L110.972 65.2367C110.991 66.2267 111.01 67.2167 111.029 68.2066C111.086 70.1866 111.067 72.1666 111.01 74.1465C110.991 75.1365 110.934 76.1265 110.858 77.1165C110.782 78.1064 110.687 79.0964 110.516 80.0864C110.478 80.2958 110.288 80.4291 110.079 80.391C109.927 80.372 109.813 80.2387 109.775 80.1054C109.585 79.1155 109.452 78.1255 109.338 77.1355C109.224 76.1455 109.147 75.1555 109.09 74.1656C108.976 72.1856 108.9 70.1866 108.9 68.2066C108.919 66.2267 108.995 64.2277 109.147 62.2287C109.3 60.2297 109.528 58.2497 109.889 56.2888C109.927 56.0604 110.155 55.889 110.402 55.9461C110.649 55.9652 110.801 56.1365 110.801 56.3459Z" fill="black"/>
<path id="Vector_19" d="M116.428 93.2227C116.637 93.0133 116.808 92.8229 116.979 92.6135C117.15 92.404 117.302 92.1756 117.436 91.9662C117.569 91.7377 117.683 91.5093 117.778 91.2808C117.873 91.0333 117.949 90.8048 118.006 90.5573C118.234 89.5674 118.196 88.4822 118.044 87.378C117.892 86.2357 117.721 85.2077 117.341 84.2367C117.15 83.7608 116.922 83.3038 116.656 82.866C116.371 82.4471 116.048 82.0473 115.611 81.6856L115.592 81.6666C115.44 81.5333 115.421 81.2858 115.554 81.1335C115.63 81.0383 115.763 81.0002 115.877 81.0002C116.561 81.0574 117.226 81.362 117.778 81.7998C118.329 82.2377 118.747 82.7898 119.089 83.399C119.431 83.9892 119.659 84.6175 119.83 85.2648C119.906 85.5884 119.983 85.9121 120.021 86.2167C120.078 86.5213 120.097 86.8449 120.135 87.1686C120.173 87.7968 120.192 88.4632 120.116 89.1295C120.04 89.7958 119.906 90.4622 119.64 91.0904C119.507 91.4141 119.355 91.7187 119.165 92.0042C119.07 92.1565 118.975 92.2898 118.88 92.4231C118.766 92.5564 118.652 92.6896 118.538 92.8038C118.063 93.2988 117.512 93.6796 116.922 93.9461C116.694 94.0413 116.447 93.9461 116.333 93.7177C116.257 93.5463 116.295 93.3559 116.428 93.2227Z" fill="black"/>
<g id="Group">
<path id="Vector_20" d="M95.9951 53.4512C96.3562 54.3841 96.7744 55.2028 97.3636 55.7929C97.9529 56.3831 98.6751 56.7258 99.4354 56.8781C99.7966 56.9543 100.177 56.9733 100.576 56.8971C100.975 56.821 101.393 56.6687 101.773 56.4402C102.553 55.9833 103.237 55.2979 103.864 54.5364C103.94 54.4412 104.092 54.4222 104.206 54.4983C104.282 54.5555 104.32 54.6697 104.282 54.7649C103.959 55.7739 103.351 56.7068 102.515 57.4492C102.096 57.83 101.602 58.1537 101.032 58.3821C100.747 58.4963 100.462 58.5915 100.139 58.6296C99.9867 58.6486 99.8156 58.6677 99.6635 58.6677C99.5115 58.6677 99.3404 58.6677 99.1883 58.6486C97.9719 58.5154 96.8124 57.7919 96.1472 56.7829C95.4629 55.7929 95.2538 54.5935 95.4249 53.5274C95.4439 53.3751 95.5959 53.2609 95.748 53.2799C95.8811 53.2799 95.9571 53.3561 95.9951 53.4512Z" fill="white"/>
</g>
</g>
</g>
</svg>
