<svg width="161" height="109" viewBox="0 0 161 109" fill="none" xmlns="http://www.w3.org/2000/svg">
<g id="Group 1171274403">
<g id="Group 1171274370">
<path id="Vector" d="M107.751 30.2987C106.561 31.0853 105.068 31.7913 104.039 32.7595C103.998 32.7999 103.958 32.8402 103.918 32.8806C102.969 32.9007 102.041 33.1428 101.153 33.5059C100.044 33.9698 100.367 35.6238 101.375 35.9667C101.436 35.9869 101.517 36.007 101.577 36.0272C101.759 36.5315 102.162 36.9349 102.788 36.9954C104.099 37.0963 105.33 37.0156 106.541 36.5113C106.904 36.3701 107.146 35.9062 107.166 35.5229C107.166 35.3011 107.126 35.1195 107.025 34.9178C106.884 34.5951 106.541 34.3934 106.198 34.3329C106.198 34.1917 106.198 34.0505 106.157 33.9294C106.48 33.647 106.884 33.405 107.166 33.1629C107.711 32.7192 108.276 32.2754 108.821 31.8317C109.688 31.1862 108.659 29.6936 107.751 30.2987Z" fill="#FFE033"/>
<path id="Vector_2" d="M93.6876 96.095C93.5867 96.68 93.1832 97.2246 92.5174 97.1843C90.197 97.0633 87.8766 96.7809 85.5764 96.3371C83.3367 95.9135 81.0163 94.8646 78.7161 95.0462C78.6152 95.0462 78.5143 95.0462 78.4336 95.026C77.9695 95.2479 77.2229 95.0058 77.2633 94.3402C77.4852 90.3463 77.2229 86.3323 77.3844 82.3385C77.4045 82.0763 77.5054 81.9149 77.7274 81.8342C77.9291 81.7939 78.03 81.8141 78.2116 81.8746C80.6733 82.4797 83.1349 83.1252 85.5965 83.7908C86.8273 84.1135 88.0582 84.4564 89.2688 84.7993C90.1768 85.0414 91.2865 85.2633 92.134 85.7474C92.4568 85.6869 92.8604 85.9491 92.8805 86.3323C93.1832 89.5597 94.2324 92.8274 93.6876 96.095Z" fill="#FFE033"/>
<path id="Vector_3" d="M75.0641 78.5267C74.9632 79.0914 74.257 79.3335 73.7727 79.1923C71.4927 78.567 69.2328 77.8812 66.9528 77.2962C65.7623 76.9937 64.592 76.8726 63.3612 76.8928C62.7962 76.913 62.2312 76.913 61.6461 76.8726C61.3434 76.8525 60.7785 76.6911 60.5162 76.8928C60.4153 76.9533 60.3346 77.0138 60.2337 77.0542C59.9916 77.8207 58.5791 77.8408 58.4177 76.9332C57.9536 74.1698 57.9738 71.2652 57.7115 68.4614C57.4492 65.577 57.2071 62.7127 57.0053 59.8283C56.9851 59.5661 57.1869 59.4249 57.3887 59.3644C57.4896 59.2635 57.6308 59.2232 57.7922 59.2433C63.3208 60.1712 68.8091 61.5226 74.2973 62.6925C74.721 62.7934 74.8623 63.1363 74.8219 63.459C74.8825 63.5397 74.943 63.6406 74.9632 63.7818C75.3264 66.2224 75.2457 68.7438 75.286 71.2046C75.3667 73.6655 75.5282 76.1263 75.0641 78.5267Z" fill="#FFE033"/>
<path id="Vector_4" d="M105.432 36.5716C101.618 35.4824 97.6836 34.6151 93.7289 34.1511C96.1098 32.1744 98.4907 30.2178 100.892 28.2411C101.598 27.6561 100.65 26.6476 99.9435 27.2123C97.0178 29.532 94.092 31.8516 91.1663 34.1713C90.5408 34.6554 91.0654 35.4824 91.6909 35.5833C96.1502 36.2691 100.529 37.1364 104.867 38.387C106.037 38.7097 106.622 36.8944 105.432 36.5716Z" fill="#FFE033"/>
<path id="Vector_5" d="M113.119 29.552C110.213 28.8863 107.288 28.1804 104.382 27.5147C103.232 27.2525 101.497 26.5062 100.367 27.071C99.4184 27.5551 98.7121 28.7451 98.2077 29.7335C97.219 30.3991 96.2303 31.0648 95.2416 31.7102C94.8986 31.9321 94.6968 32.2548 94.596 32.5776C93.5064 33.3239 93.7081 35.4015 95.403 35.5023C97.3603 35.6234 99.3175 35.6435 101.275 35.7041C102.203 35.7242 103.192 35.7041 104.16 35.7444C103.857 37.0757 105.552 38.4675 106.783 37.2976C107.288 36.8336 107.772 36.3697 108.276 35.9058C109.265 34.9981 110.274 34.1106 111.303 33.2432C111.989 32.8802 112.695 32.5372 113.401 32.1943C114.41 31.6699 114.309 29.8344 113.119 29.552Z" fill="#FFE033"/>
<path id="Vector_6" d="M57.2684 33.1028C53.6365 32.3766 49.9844 31.6908 46.3121 31.0857C46.1103 31.0454 45.9489 31.1462 45.8279 31.2672C44.4558 31.2269 43.0837 31.5698 41.7722 32.1346C39.815 32.9616 38.1604 34.3534 36.1831 35.14C34.6698 35.7451 35.5374 37.7622 36.8287 37.9236C39.7141 38.3068 42.5591 38.8716 45.3638 39.5574C45.727 40.0012 46.3323 40.2432 46.9376 39.9205C47.2201 39.9407 47.4622 39.8802 47.664 39.7591C47.7044 40.4651 48.5316 41.0299 49.2782 40.4248C51.8811 38.3875 54.6857 36.5722 57.3895 34.6761C57.9545 34.3332 58.0957 33.2843 57.2684 33.1028Z" fill="#FFE033"/>
<path id="Vector_7" d="M75.8311 46.6766V47.544C75.3065 47.4431 74.7819 47.3221 74.2775 47.2212C68.6076 46.0513 62.958 44.8612 57.2881 43.651C55.9968 43.3686 54.7256 43.1064 53.4342 42.824L52.1227 42.5416C46.0291 41.2507 39.9154 39.9597 33.9227 38.3259C33.8823 38.3259 33.8622 38.3057 33.8218 38.3057C33.5999 38.2452 33.3577 38.1847 33.1358 38.1242C32.934 38.0637 32.7928 37.9628 32.6919 37.8418C32.1874 37.2367 32.591 36.0062 33.5191 36.1474C33.6402 36.1676 33.7613 36.1878 33.8823 36.2079C34.7096 36.3491 35.5571 36.4903 36.3843 36.6315C39.9961 37.277 43.5877 38.0435 47.1591 38.7696C49.0154 39.1529 50.8515 39.5361 52.7078 39.8992C53.2728 40.0202 53.8378 40.1211 54.4229 40.2421C60.1331 41.3918 65.8232 42.5214 71.5334 43.6308C72.8852 43.893 74.2371 44.1553 75.589 44.4175C76.1338 44.5183 76.6584 44.6192 77.2032 44.72C76.6786 45.184 76.154 45.6479 75.6294 46.1118C75.7504 46.253 75.8311 46.4346 75.8311 46.6766Z" fill="black"/>
<path id="Vector_8" d="M79.1794 14.3833C78.0697 15.0287 76.9397 15.654 75.8098 16.2591C74.3772 17.0256 72.9446 17.772 71.512 18.5183C69.6961 19.4663 67.8599 20.4143 66.044 21.3422C65.4992 21.6246 64.9544 21.907 64.4298 22.1894C60.0715 24.4485 55.7131 26.6875 51.3548 28.9264C50.6688 29.2693 50.0029 29.6324 49.3169 29.9753C45.0191 32.1941 40.7214 34.4129 36.4236 36.6317C35.5963 37.0553 34.7892 37.4789 33.9619 37.9025C33.9216 37.9226 33.8812 37.9428 33.8207 37.963C33.397 38.1445 32.9934 38.0437 32.6908 37.8218C32.0451 37.3377 31.8635 36.1678 32.8118 35.6635C32.9732 35.5828 33.1347 35.482 33.2759 35.4013C36.6657 33.5456 40.0353 31.6899 43.4453 29.8745C49.6398 26.5866 55.8342 23.3189 62.069 20.0916C65.0149 18.5788 67.9608 16.9853 70.9471 15.4926C71.9559 14.9884 72.9648 14.4841 73.9737 14C75.7089 14.121 77.4442 14.2622 79.1794 14.3833Z" fill="black"/>
<path id="Vector_9" d="M70.9492 15.4925C71.0905 15.6135 71.2721 15.7144 71.494 15.7345C72.9266 15.9161 74.3592 16.0976 75.812 16.259C79.1211 16.6422 82.4302 17.0053 85.7393 17.3482C86.3244 17.4087 86.9095 17.4692 87.4947 17.5298C93.7093 18.1551 99.9442 18.6997 106.159 19.2644C106.946 19.3451 107.712 19.4056 108.479 19.4863C109.549 18.6997 110.618 17.9332 111.687 17.1263C110.9 17.0658 110.114 16.9851 109.347 16.9246C100.852 16.1581 92.3373 15.4118 83.8224 14.7663C82.2688 14.6453 80.7353 14.5243 79.1816 14.4033C77.4464 14.2621 75.7111 14.1209 73.9758 14.02L70.9492 15.4925Z" fill="black"/>
<path id="Vector_10" d="M115.277 30.2785C114.692 30.1776 114.127 30.0768 113.542 29.9759C113.986 29.5927 114.43 29.2094 114.854 28.8262C115.015 28.8463 115.197 28.8665 115.358 28.8867C116.246 28.9875 116.145 30.4398 115.277 30.2785Z" fill="black"/>
<path id="Vector_11" d="M91.9121 64.2056C91.9323 63.6811 91.9323 63.1567 91.9525 62.6121C92.6788 62.955 92.578 63.9635 91.9121 64.2056Z" fill="black"/>
<path id="Vector_12" d="M127.909 25.6996C127.748 27.7571 127.546 29.7943 127.324 31.8517C127.022 34.716 126.699 37.5601 126.356 40.4243C126.295 40.969 126.235 41.5337 126.154 42.0784C125.65 46.2537 125.085 50.4291 124.499 54.5843C124.378 55.4315 124.257 56.2585 124.136 57.1056C123.39 62.108 122.583 67.1104 121.695 72.0926C121.473 73.323 121.251 74.5534 121.029 75.7637C121.029 75.804 121.009 75.8444 121.009 75.8847C120.524 76.3083 120.04 76.7117 119.556 77.1353C119.455 77.216 119.354 77.3168 119.253 77.3975C117.74 78.7086 116.207 80.0197 114.693 81.3308C114.108 81.8351 113.503 82.3596 112.918 82.8638C112.252 83.4488 111.586 84.0136 110.9 84.5985C108.075 87.0392 105.23 89.4799 102.385 91.9205C101.78 92.4248 101.195 92.9493 100.589 93.4535C98.3899 95.3294 96.1704 97.2053 93.9508 99.061C93.5271 99.4241 93.4262 99.6258 92.7604 99.6258C92.3366 99.6258 91.8928 99.5048 91.3883 99.3837C74.8832 95.5916 58.2772 92.3845 41.7317 88.7537C40.7632 88.5318 41.0861 86.898 42.0748 87.0392C46.534 87.6443 50.9932 88.3503 55.4322 89.1168C55.4524 89.258 55.4726 89.3992 55.4927 89.5202C55.6542 90.6094 57.4096 90.5287 57.4903 89.4597C56.8043 89.3387 56.1182 89.2176 55.4322 89.0966C54.9278 85.3045 54.8067 81.4317 54.5242 77.6396C54.4435 76.7117 54.383 75.7839 54.3224 74.856C54.2821 74.4526 54.2619 74.029 54.2215 73.6256C54.9076 73.7869 55.5936 73.9281 56.2796 74.0895C56.32 74.5131 56.3604 74.9367 56.3805 75.3603C57.006 75.5015 57.6315 75.6628 58.257 75.804C59.7703 76.1671 61.3038 76.5302 62.8171 76.8932C64.4515 77.2765 66.0657 77.6597 67.7001 78.043C69.8994 78.5674 72.1189 79.0919 74.3182 79.6163C74.3182 79.4751 74.3182 79.3339 74.3182 79.1927C74.3182 78.8498 74.3182 78.5271 74.3182 78.1842C74.5805 78.2447 74.8227 78.3052 75.085 78.3657C75.3473 78.4262 75.6298 78.4867 75.8921 78.5473C75.8921 79.0314 75.8921 79.5155 75.8921 79.9996C75.8921 84.3363 75.8921 88.6932 75.8921 93.0299C75.3876 92.9291 74.8832 92.8282 74.3788 92.7274C74.3788 92.9492 74.3788 93.1711 74.3788 93.393C74.3788 94.3612 75.8921 94.4621 75.8921 93.4737V93.0299C76.3562 93.1308 76.8202 93.2316 77.2843 93.3123C81.8242 94.2604 86.3642 95.2487 90.8839 96.2371C90.8637 96.1362 90.8637 96.0354 90.8435 95.9345C90.783 93.9376 91.005 91.9205 91.0857 89.9438C91.1462 88.4108 91.2067 86.8778 91.2672 85.3247C91.2874 84.9212 91.3076 84.538 91.3076 84.1346L91.3278 83.8724C91.348 83.1866 91.3883 82.4806 91.4085 81.7948C91.5296 78.7086 91.6305 75.6427 91.7112 72.5565C91.7919 69.7528 91.8524 66.9692 91.9129 64.1654C92.5788 63.9234 92.6797 62.9148 91.9533 62.5719C92.0138 58.6386 92.0743 54.7255 92.1349 50.7922C92.0138 50.772 91.8928 50.7518 91.7919 50.7115C90.6216 50.4694 89.4311 50.2476 88.2608 50.0055C86.0413 49.5617 83.8218 49.118 81.6023 48.6541C79.6854 48.2708 77.7888 47.8674 75.8719 47.4841V46.6168C75.8719 46.3949 75.7912 46.1932 75.6701 46.0722C76.1947 45.6083 76.7194 45.1443 77.244 44.6804C79.4231 45.104 81.6023 45.5074 83.7613 45.931C85.7992 46.3142 87.8169 46.6975 89.8548 47.0807C90.904 47.2824 91.9533 47.4842 93.0025 47.6657C93.2043 47.706 93.4262 47.7464 93.6482 47.7665C96.7151 44.9225 99.8225 42.1187 102.93 39.315C103.273 39.0124 103.616 38.6897 103.959 38.3871C104.04 38.3064 104.14 38.2257 104.241 38.145C104.504 37.9232 104.746 37.6811 105.008 37.4592C105.27 37.2374 105.533 36.9953 105.795 36.7734C105.815 36.7533 105.835 36.7533 105.835 36.7331C106.299 36.3297 106.763 35.9262 107.228 35.5027C109.326 33.6469 111.445 31.7912 113.563 29.9355C113.664 29.9557 113.745 29.9758 113.846 29.9758C114.027 29.996 114.189 30.0364 114.37 30.0565C114.693 30.117 114.996 30.1776 115.299 30.2179C115.379 30.2381 115.44 30.2381 115.5 30.2179C115.541 30.2179 115.581 30.1977 115.601 30.1977C115.642 30.1776 115.682 30.1574 115.702 30.1372C115.742 30.117 115.783 30.0767 115.823 30.0364C115.843 29.996 115.863 29.9758 115.884 29.9355C115.884 29.9153 115.904 29.9153 115.904 29.8952C115.924 29.8548 115.944 29.8145 115.944 29.7741C115.944 29.754 115.944 29.754 115.964 29.7338C115.985 29.6733 115.985 29.6128 115.985 29.5523C115.985 29.5321 115.985 29.4917 115.985 29.4716C115.985 29.4514 115.985 29.4514 115.985 29.4312C115.985 29.4111 115.985 29.3909 115.964 29.3505C115.964 29.3304 115.944 29.29 115.944 29.2699C115.944 29.2699 115.944 29.2699 115.944 29.2497C115.924 29.2093 115.924 29.1892 115.904 29.169C115.884 29.1287 115.863 29.1085 115.843 29.0883C115.823 29.0682 115.803 29.048 115.783 29.0278C115.763 29.0076 115.742 28.9875 115.702 28.9673C115.682 28.9471 115.642 28.927 115.621 28.9068C115.561 28.8665 115.48 28.8463 115.379 28.8463C115.218 28.8261 115.036 28.8059 114.875 28.7858C115.137 28.5437 115.42 28.3218 115.682 28.0798C118.487 25.6593 121.291 23.2791 124.116 20.899C120.908 20.5964 117.7 20.2938 114.471 19.9913C112.474 19.8097 110.476 19.6282 108.479 19.4467C109.548 18.66 110.617 17.8935 111.687 17.0867C116.731 17.5304 121.775 17.9944 126.82 18.4381C127.687 18.5188 128.071 19.2248 128.051 19.9106C128.555 21.726 128.051 23.9246 127.909 25.6996Z" fill="black"/>
<path id="Vector_13" d="M42.5588 85.0023C41.8123 76.7927 39.9156 68.6034 38.2812 60.535C37.4741 56.521 36.6267 52.4869 35.7591 48.4729C35.3353 46.4759 34.8914 44.479 34.4475 42.4619C34.0036 40.4045 33.8624 39.0934 33.8624 36.2695C33.8624 35.0996 32.2684 35.503 32.1271 36.5317C31.5622 40.5457 33.0149 44.358 33.8422 48.251C34.7098 52.3255 35.5573 56.4202 36.3846 60.5149C37.2118 64.6095 37.9987 68.7042 38.7857 72.7989C39.5928 76.9541 40.3191 81.1496 41.4087 85.2242C41.6307 85.9906 42.6194 85.7284 42.5588 85.0023Z" fill="black"/>
<path id="Vector_14" d="M57.4702 89.4798C57.3895 90.5287 55.6139 90.6295 55.4726 89.5403C55.4525 89.3991 55.4323 89.2579 55.4121 89.1167C56.1183 89.2377 56.8044 89.3587 57.4702 89.4798Z" fill="black"/>
<path id="Vector_15" d="M75.9117 93.4731C75.9117 94.4615 74.3984 94.3606 74.3984 93.3924C74.3984 93.1706 74.3984 92.9487 74.3984 92.7268C74.9029 92.8277 75.4073 92.9285 75.9117 93.0495C75.9117 93.1907 75.9117 93.3319 75.9117 93.4731Z" fill="black"/>
<path id="Vector_16" d="M56.2786 74.1095C55.5926 73.9481 54.9065 73.8069 54.2205 73.6455C54.0187 70.983 53.8169 68.3204 53.6152 65.6579C53.373 62.5112 53.1713 59.3646 52.9695 56.2381C52.9493 55.7943 52.909 55.3707 52.8888 54.927C52.6265 50.7919 52.3844 46.6771 52.1221 42.542C52.1019 42.2597 52.0817 41.9773 52.0615 41.6747C52.0615 41.594 52.0615 41.5133 52.1019 41.4528C52.2229 41.1503 52.6265 41.0292 52.9291 41.1301C53.1309 41.1906 53.2923 41.3318 53.3125 41.5738C53.3529 41.9773 53.3932 42.4008 53.4336 42.8043C53.8371 46.9595 54.2407 51.1147 54.6442 55.2497C54.6846 55.6935 54.7249 56.1574 54.7653 56.6011C55.0478 59.5663 55.3101 62.5314 55.5522 65.4965C55.8145 68.3809 56.0365 71.2452 56.2786 74.1095Z" fill="black"/>
<path id="Vector_17" d="M57.4702 89.4798C57.3895 90.5287 55.6139 90.6295 55.4726 89.5403C55.4525 89.3991 55.4323 89.2579 55.4121 89.1167C56.1183 89.2377 56.8044 89.3587 57.4702 89.4798Z" fill="black"/>
<path id="Vector_18" d="M91.9124 64.2047C91.751 64.2652 91.5694 64.2854 91.3474 64.2249C86.2022 63.0953 81.0368 62.0061 75.8714 60.9572C75.3468 60.8563 74.8221 60.7353 74.2975 60.6345C74.2975 60.1705 74.2975 59.6864 74.2975 59.2225C74.2975 55.2085 74.2975 51.1945 74.2773 47.2007C74.802 47.3015 75.3266 47.4226 75.831 47.5234C77.7479 47.9067 79.6445 48.3101 81.5614 48.6933C83.7809 49.1371 86.0004 49.601 88.2199 50.0448C89.3902 50.2868 90.5807 50.5087 91.751 50.7508C91.872 50.7709 91.9729 50.7911 92.094 50.8314C92.0536 54.7647 91.9931 58.6779 91.9124 62.6112C91.9326 63.1558 91.9326 63.6803 91.9124 64.2047Z" fill="black"/>
<path id="Vector_19" d="M75.8505 47.5237C75.3259 47.4229 74.8013 47.3018 74.2969 47.201C74.2969 46.9791 74.2969 46.7774 74.2969 46.5757C74.2969 46.374 74.3574 46.2126 74.4785 46.0916C74.761 45.789 75.3461 45.8092 75.6487 46.1319C75.7698 46.2529 75.8707 46.4547 75.8707 46.6765L75.8505 47.5237Z" fill="black"/>
<path id="Vector_20" d="M75.9111 78.547C75.3864 78.4259 74.8618 78.3049 74.3372 78.1839C74.3171 72.3343 74.3171 66.4848 74.2969 60.6353C74.8215 60.7361 75.3461 60.8571 75.8707 60.958C75.8909 66.8277 75.9111 72.6974 75.9111 78.547Z" fill="black"/>
<path id="Vector_21" d="M75.9117 93.4731C75.9117 94.4615 74.3984 94.3606 74.3984 93.3924C74.3984 93.1706 74.3984 92.9487 74.3984 92.7268C74.9029 92.8277 75.4073 92.9285 75.9117 93.0495C75.9117 93.1907 75.9117 93.3319 75.9117 93.4731Z" fill="black"/>
<path id="Vector_22" d="M88.9065 16.441C88.4425 16.8041 87.9784 17.1672 87.4941 17.5303C84.8105 19.5877 82.0664 21.5443 79.2617 23.4403C78.7775 23.763 78.2932 24.0858 77.809 24.4287C75.4886 26.002 73.148 27.5552 70.8478 29.1083C69.5161 30.016 68.1642 30.9237 66.8325 31.8314C66.1464 32.2953 65.4604 32.7592 64.7945 33.2232C63.7655 33.909 62.7365 34.615 61.7074 35.3008C60.1537 36.3496 58.6001 37.3985 57.0464 38.4474C56.1788 39.0122 55.3313 39.6577 54.4234 40.2426C53.9189 40.5653 53.4347 40.8679 52.9101 41.1301C52.7083 41.231 52.5065 41.3319 52.3047 41.4125C52.224 41.4529 52.1635 41.4529 52.0828 41.4529C51.7398 41.4327 51.5178 41.0091 51.8205 40.7066C52.103 40.4242 52.4056 40.1418 52.7285 39.8997C53.8584 38.9719 55.1699 38.2054 56.32 37.3784C57.8535 36.2891 59.4072 35.2402 60.9407 34.1914C61.5863 33.7476 62.232 33.3039 62.8777 32.8601C63.5637 32.3962 64.2296 31.9322 64.8954 31.4683C66.6105 30.2984 68.3256 29.1083 70.0407 27.9384C71.897 26.6676 73.7533 25.3565 75.6096 24.0858C76.0737 23.7631 76.558 23.4403 77.0221 23.1176C79.8872 21.1408 82.7726 19.2044 85.7185 17.3891C86.6063 16.8445 87.4941 16.2998 88.4021 15.7754C88.846 15.493 89.2697 16.1385 88.9065 16.441Z" fill="black"/>
<path id="Vector_23" d="M111.686 17.1267C110.637 17.9335 109.548 18.7 108.478 19.4867C107.873 19.9304 107.267 20.3742 106.662 20.818C104.14 22.6938 101.658 24.6101 99.1763 26.5465C98.7324 26.8894 98.3087 27.2323 97.8648 27.5752C94.3741 30.3184 90.9238 33.102 87.5138 35.9461C86.9892 36.3697 86.4646 36.8134 85.9601 37.2572C83.0142 39.718 80.0885 42.2192 77.2031 44.7406C76.6785 45.2045 76.1539 45.6684 75.6293 46.1324C75.5688 46.1929 75.488 46.2534 75.4275 46.3139C75.0643 46.6366 74.6204 46.4349 74.459 46.1122C74.3379 45.8903 74.3379 45.6079 74.6002 45.3659C74.9432 45.0633 75.2661 44.7406 75.6091 44.438C78.1313 42.1385 80.6535 39.8592 83.2564 37.6404C83.5388 37.3984 83.8213 37.1563 84.0836 36.9345C84.6082 36.4705 85.153 36.0268 85.6776 35.583C89.0069 32.7591 92.3765 29.9957 95.7865 27.2928C96.2102 26.9499 96.6542 26.607 97.0981 26.2641C97.6832 25.8002 98.2683 25.3564 98.8333 24.8925C101.255 22.9964 103.696 21.1407 106.158 19.3051C106.44 19.0833 106.723 18.8816 107.005 18.6799C107.772 18.1151 108.559 17.5301 109.326 16.9653L111.686 17.1267Z" fill="black"/>
<path id="Vector_24" d="M95.7867 27.2525C92.3768 29.9554 89.0071 32.7188 85.6779 35.5428C85.1331 35.9865 84.6085 36.4505 84.0839 36.8942C79.5238 36.0672 74.9637 35.1595 70.4238 34.2922C68.5473 33.9291 66.691 33.566 64.8145 33.2029C65.5005 32.739 66.1865 32.2751 66.8524 31.8112C68.1841 30.9035 69.536 29.9958 70.8677 29.0881C73.1679 27.5148 75.5085 25.9818 77.8289 24.4084C83.8014 25.3968 89.7941 26.3449 95.7867 27.2525Z" fill="black"/>
<path id="Vector_25" d="M64.9152 31.4471C65.5609 31.5681 66.2066 31.6891 66.8522 31.8303C66.1662 32.2943 65.4802 32.7582 64.8143 33.2221C64.1686 33.1011 63.5431 32.9801 62.8975 32.859C58.4584 31.9917 54.0194 31.1042 49.6006 30.136C49.4795 30.1158 49.3988 30.0553 49.3181 29.9948C48.8742 29.5914 49.1769 28.5828 49.8629 28.7039C50.3471 28.7845 50.8516 28.8652 51.3358 28.9459C55.8757 29.7124 60.3955 30.5797 64.9152 31.4471Z" fill="black"/>
<path id="Vector_26" d="M91.1255 38.1043C89.4105 37.8421 87.6954 37.5395 85.9601 37.2571C85.3347 37.1361 84.689 37.0352 84.0635 36.9142C84.5881 36.4503 85.1329 36.0065 85.6575 35.5627C86.283 35.6838 86.8883 35.825 87.5138 35.9662C88.8051 36.2486 90.0763 36.5309 91.3677 36.8335C92.1142 36.9747 91.8519 38.2253 91.1255 38.1043Z" fill="black"/>
<path id="Vector_27" d="M115.278 30.2774C114.693 30.1766 114.128 30.0757 113.543 29.9749C110.234 29.4101 106.885 28.9663 103.576 28.4621C101.679 28.1797 99.7823 27.8771 97.8856 27.5947C97.1794 27.4939 96.4933 27.3728 95.7871 27.272C89.7944 26.3441 83.8219 25.4163 77.8293 24.4279C77.1029 24.3069 76.3563 24.1858 75.6299 24.0648C71.8971 23.4597 68.1643 22.8344 64.4315 22.1889C63.927 22.1082 63.4226 22.0074 62.9383 21.9267C62.2725 21.8057 62.3128 20.7568 62.9989 20.8577C64.0279 21.019 65.0368 21.1804 66.0658 21.3418C68.9512 21.7855 71.8164 22.2494 74.7018 22.7134C75.4887 22.8344 76.2756 22.9756 77.0625 23.0966C77.8091 23.2176 78.5556 23.3387 79.3022 23.4597C84.508 24.2867 89.7339 25.0935 94.9397 25.9004C95.6661 26.0012 96.3925 26.1222 97.1188 26.2433C97.825 26.3441 98.5111 26.4651 99.2173 26.566C104.423 27.393 109.649 28.2402 114.875 28.8453C115.036 28.8655 115.218 28.8856 115.379 28.9058C116.247 28.9865 116.146 30.4388 115.278 30.2774Z" fill="black"/>
<path id="Vector_28" d="M74.2975 60.6556C67.7802 59.3243 61.263 58.0132 54.7658 56.6215C54.1605 56.5004 53.5552 56.3592 52.9701 56.2382C50.1251 55.6331 47.28 54.9876 44.4552 54.3422C43.8902 54.2211 44.092 53.2529 44.657 53.3538C47.4011 53.8581 50.1452 54.4027 52.8894 54.9271C53.4745 55.0481 54.0596 55.149 54.6448 55.27C61.2024 56.5609 67.7399 57.9326 74.2975 59.2437C74.2975 59.7076 74.2975 60.1715 74.2975 60.6556Z" fill="black"/>
<path id="Vector_29" d="M91.9121 64.2056C91.9323 63.6811 91.9323 63.1567 91.9525 62.6121C92.6788 62.955 92.578 63.9635 91.9121 64.2056Z" fill="black"/>
<path id="Vector_30" d="M54.3023 74.8752C49.8834 73.8264 45.4646 72.7573 41.0457 71.6681C40.4807 71.5269 40.7834 70.6999 41.3282 70.8209C45.1417 71.6479 48.9351 72.4749 52.7486 73.3221C53.2329 73.4229 53.7373 73.544 54.2215 73.6448C54.2417 74.0482 54.2821 74.4718 54.3023 74.8752Z" fill="black"/>
<path id="Vector_31" d="M74.338 79.636C68.3454 78.224 62.3729 76.812 56.3802 75.3799C56.3398 74.9563 56.3197 74.5327 56.2793 74.1091C61.707 75.3194 67.1347 76.57 72.5624 77.8004C73.1476 77.9416 73.7327 78.0626 74.3179 78.2038C74.3381 78.6677 74.338 79.1519 74.338 79.636Z" fill="black"/>
<path id="Vector_32" d="M91.3478 83.8924C89.6327 83.4285 87.9782 82.8233 86.2228 82.4199C84.3261 81.9762 82.4294 81.5324 80.5529 81.0886C78.9993 80.7256 77.4658 80.3625 75.9121 79.9994C75.9121 79.5153 75.9121 79.0312 75.9121 78.5471C78.0711 79.0312 80.2301 79.5355 82.3891 80.0196C84.084 80.4028 85.7789 80.8062 87.4939 81.1693C88.8055 81.4517 90.117 81.6131 91.4285 81.8148C91.3882 82.5208 91.368 83.2066 91.3478 83.8924Z" fill="black"/>
<path id="Vector_33" d="M48.0868 36.1073C47.8447 35.8451 47.4613 35.8451 47.199 36.067C46.9972 36.2485 46.7752 36.43 46.5735 36.6317C46.3515 36.8335 46.1699 37.0553 45.9681 37.2974C45.6453 37.7411 46.2305 38.3261 46.6744 38.0639C47.1788 37.7613 47.6025 37.3781 48.0464 36.9948C48.3087 36.7729 48.3087 36.3493 48.0868 36.1073Z" fill="#FFE033"/>
<path id="Vector_34" d="M104.261 39.0317C103.857 43.5701 103.514 48.1086 103.292 52.6672C103.232 53.9178 103.171 55.1482 103.131 56.3988C103.111 56.8022 103.091 57.2258 103.091 57.6292C102.889 62.8938 102.808 68.1786 102.768 73.4432C102.768 74.0281 102.768 74.6131 102.748 75.198C102.748 75.6418 102.748 76.0855 102.748 76.5293C102.727 81.6123 102.788 86.7963 102.425 91.9398C101.819 92.4441 101.234 92.9685 100.629 93.4728C100.77 91.133 100.891 88.7932 100.952 86.4533C101.032 83.1453 101.073 79.8575 101.113 76.5495C101.113 75.9847 101.133 75.4401 101.133 74.8955C101.174 70.8209 101.234 66.7464 101.355 62.6719C101.396 61.3608 101.456 60.0497 101.517 58.7386C101.537 58.3352 101.557 57.9519 101.577 57.5485C101.88 51.4771 102.344 45.4258 102.929 39.3746C102.949 39.2536 102.949 39.1124 102.969 38.9914C103.03 38.4467 103.595 38.2652 103.958 38.4467C104.14 38.5274 104.281 38.7291 104.261 39.0317Z" fill="white"/>
<path id="Vector_35" d="M115.702 27.6352C115.682 27.7966 115.662 27.9782 115.662 28.1395C115.641 28.4219 115.621 28.6841 115.581 28.9665C115.541 29.4103 115.5 29.854 115.46 30.2978C115.137 34.3521 114.935 38.4065 114.774 42.481C114.693 44.4376 114.612 46.3941 114.532 48.3507C114.512 48.8348 114.491 49.3391 114.471 49.8232C114.31 54.402 114.189 58.9807 114.169 63.5595C114.169 64.2453 114.169 64.9312 114.169 65.617C114.169 66.6053 114.189 67.5735 114.209 68.5619C114.29 72.7978 114.572 77.0942 114.653 81.3502C114.068 81.8545 113.462 82.3789 112.877 82.8832C112.857 81.8545 112.857 80.8258 112.817 79.7971C112.696 75.541 112.514 71.3051 112.474 67.0491C112.474 66.9281 112.474 66.8272 112.474 66.7062C112.474 66.1414 112.474 65.5766 112.474 65.0118C112.494 61.2802 112.655 57.5284 112.837 53.7968C112.877 52.8085 112.938 51.8201 112.978 50.8317C112.998 50.3476 113.018 49.8635 113.039 49.3794C113.341 42.9651 113.684 36.5306 114.29 30.1364C114.31 29.8339 114.35 29.5313 114.37 29.2287L114.411 28.8052C114.451 28.4017 114.491 28.0185 114.532 27.6151C114.673 26.8688 115.783 26.9091 115.702 27.6352Z" fill="white"/>
<path id="Vector_36" d="M126.376 40.4246C126.315 40.9692 126.255 41.534 126.174 42.0786C122.259 44.6201 118.365 47.202 114.491 49.8242C113.987 50.1469 113.502 50.4898 112.998 50.8327C109.669 53.0919 106.36 55.351 103.051 57.6505C102.526 58.0135 102.001 58.3766 101.477 58.7397C99.0353 60.434 96.614 62.1284 94.1927 63.8227C93.9102 64.0245 93.5672 63.5404 93.8497 63.3185C96.3921 61.3821 98.9546 59.4255 101.537 57.5294C101.981 57.2067 102.425 56.884 102.869 56.5612C102.95 56.5007 103.01 56.4604 103.091 56.3999C106.4 54.0197 109.709 51.6799 113.059 49.3602C113.543 49.0173 114.027 48.6744 114.532 48.3517C115.944 47.3835 117.377 46.4153 118.809 45.4471C121.331 43.7528 123.853 42.0786 126.376 40.4246Z" fill="white"/>
<path id="Vector_37" d="M124.519 54.584C124.398 55.4312 124.277 56.2582 124.156 57.1053C123.308 57.8315 122.461 58.5576 121.613 59.2838C119.152 61.4017 116.69 63.4995 114.208 65.6174C113.643 66.1015 113.099 66.5655 112.534 67.0496C112.534 67.0496 112.534 67.0496 112.513 67.0697C109.265 69.813 105.996 72.536 102.707 75.2389C102.162 75.6827 101.618 76.1264 101.073 76.5702C98.6919 78.5066 96.2908 80.4228 93.8897 82.3391C93.466 82.682 92.901 82.0768 93.3046 81.7138C95.8873 79.4345 98.4902 77.1753 101.073 74.896C101.618 74.4119 102.162 73.948 102.707 73.4841C105.613 70.9627 108.538 68.4414 111.464 65.92C111.807 65.6174 112.15 65.3149 112.493 65.0325C113.058 64.5484 113.623 64.0643 114.168 63.5802C116.327 61.7245 118.466 59.8486 120.625 57.9928C121.936 56.8229 123.228 55.7136 124.519 54.584Z" fill="white"/>
</g>
</g>
</svg>
